<svg width="197" height="63" viewBox="0 0 197 63" fill="none" xmlns="http://www.w3.org/2000/svg">
<path d="M188.118 17.4949H186.308H185.49C185.11 17.4949 184.696 17.5698 184.259 17.7279C183.821 17.8776 183.366 18.2187 182.903 18.7345C182.44 19.2586 182.209 20.0073 182.209 20.9889C182.209 22.1952 182.482 23.0271 183.027 23.4929C183.573 23.9505 184.201 24.2749 184.911 24.433C185.217 24.433 185.448 24.433 185.614 24.433H186.308H188.118V17.4949ZM180.647 29.1915L179.829 29.0251L178.97 28.6923C177.796 28.2265 176.681 27.353 175.623 26.0885C174.565 24.824 174.044 23.0437 174.044 20.756C174.044 17.4783 175.028 15.0491 177.003 13.4851C178.97 11.9128 181.441 11.1309 184.391 11.1309H184.804H196.588V40.0561H196.175H188.126V30.223H187.795L181.928 40.0561H181.515H172.896L180.647 29.1915ZM118.685 28.7007H124.842L121.76 18.4932L118.685 28.7007ZM116.677 11.1309H117.091H126.858L137.039 40.0561H136.626H128.007L126.445 35.0564H117.082L115.479 40.0561H115.066H106.447L116.677 11.1309ZM72.4993 11.1309H72.9125H80.9614L85.804 28.0767L90.6465 11.1309H91.0597H99.1086L103.298 40.0561H102.885H95.1668L93.1587 24.2666L88.6054 40.0561H88.1922H83.0191L78.4657 24.2666L76.4411 40.0645H76.0279H68.3096L72.4993 11.1309ZM149.187 11.1309V27.8688L159.905 11.1309H160.318H168.202V40.0561H167.789H160.029V23.3682L149.476 40.0645H149.063H141.014V11.1309H141.427H149.187Z" fill="#094076"/>
<path d="M195.348 45.9212V47.9926H194.959C194.695 47.9926 193.654 47.9926 193.654 46.9527C193.654 45.9378 194.695 45.9212 194.943 45.9212H195.348ZM196.678 44.8314H194.703C194.133 44.8314 193.488 44.8813 192.951 45.3555C192.596 45.6716 192.274 46.1957 192.274 46.9527C192.274 47.7431 192.629 48.3087 193.042 48.6082C193.257 48.7663 193.53 48.8744 193.786 48.916L191.761 51.6946H193.356L195.092 49.0408H195.339V51.6946H196.67V44.8314H196.678ZM184.861 44.8314V51.8277H185.778L189.538 47.0609V51.6946H190.869V44.6733H189.952L186.192 49.4401V44.8314H184.861ZM179.093 44.8314H177.762V51.6946H179.093V48.6415H181.977V51.6946H183.307V44.8314H181.977V47.4852H179.093V44.8314ZM172.606 49.1656L173.589 46.6949L174.548 49.1656H172.606ZM175.539 51.6946H176.969L174.093 44.69H173.093L170.135 51.6946H171.573L172.176 50.2554H174.928L175.539 51.6946ZM163.945 51.6946H165.276V45.9794H168.019V51.6946H169.35V44.8314H163.954V51.6946H163.945ZM156.054 51.6946L156.748 47.4685L158.541 51.7944H158.913L160.78 47.4685L161.392 51.6946H162.739L161.59 44.7066H160.673L158.739 49.1906L156.888 44.7066H155.971L154.707 51.6946H156.054ZM150.186 50.6381C148.856 50.6381 147.914 49.6564 147.914 48.2672C147.914 46.8779 148.856 45.8879 150.186 45.8879C151.517 45.8879 152.459 46.8779 152.459 48.2672C152.451 49.6564 151.508 50.6381 150.186 50.6381ZM150.186 44.6733C148.038 44.6733 146.55 46.1791 146.55 48.2672C146.55 50.3552 148.046 51.8526 150.186 51.8526C152.327 51.8526 153.822 50.3552 153.822 48.2672C153.822 46.1791 152.327 44.6733 150.186 44.6733ZM141.699 44.8314H140.369V51.6946H141.699V48.7746L141.856 48.6165L144.278 51.6946H146.038L142.997 48.0009L145.881 44.8314H144.203L141.699 47.7347V44.8314ZM135.105 45.9212V47.9926H134.716C134.452 47.9926 133.411 47.9926 133.411 46.9527C133.411 45.9378 134.452 45.9212 134.7 45.9212H135.105ZM136.435 44.8314H134.46C133.89 44.8314 133.246 44.8813 132.708 45.3555C132.353 45.6716 132.031 46.1957 132.031 46.9527C132.031 47.7431 132.386 48.3087 132.799 48.6082C133.014 48.7663 133.287 48.8744 133.543 48.916L131.518 51.6946H133.113L134.849 49.0408H135.097V51.6946H136.427V44.8314H136.435ZM127.015 49.1656L127.998 46.6949L128.957 49.1656H127.015ZM129.948 51.6946H131.378L128.502 44.69H127.51L124.552 51.6946H125.99L126.593 50.2554H129.345L129.948 51.6946ZM120.139 44.8314H118.809V51.6946H120.139V48.7746L120.296 48.6165L122.717 51.6946H124.478L121.437 48.0009L124.321 44.8314H122.643L120.139 47.7347V44.8314ZM117.586 49.881C117.189 50.3552 116.627 50.6297 115.991 50.6297C114.842 50.6297 113.677 49.8062 113.677 48.2838C113.677 47.0193 114.569 45.8879 115.933 45.8879C116.181 45.8879 116.958 45.9378 117.577 46.6616V45.0976C116.949 44.7565 116.379 44.6733 115.9 44.6733C114.925 44.6733 114.082 44.9312 113.396 45.5801C112.809 46.1292 112.305 47.0193 112.305 48.2672C112.305 49.2737 112.611 50.1306 113.396 50.8876C113.966 51.4367 114.693 51.8443 115.892 51.8443C116.627 51.8443 117.172 51.6613 117.577 51.445V49.881H117.586ZM108.504 45.9794H108.967C109.281 45.9794 109.628 45.9961 109.909 46.1957C110.107 46.3371 110.289 46.595 110.289 46.9777C110.289 47.2772 110.165 47.585 109.917 47.7846C109.628 48.0009 109.305 48.0009 109.049 48.0009H108.504V45.9794ZM107.173 44.8314V51.6946H108.504V49.149H109.363C110.148 49.149 110.71 48.9244 111.09 48.5417C111.611 48.0176 111.652 47.2772 111.652 47.011C111.652 46.5202 111.512 45.8463 110.958 45.3555C110.454 44.9146 109.925 44.8314 109.157 44.8314H107.173ZM102.306 50.6297C100.975 50.6297 100.033 49.6481 100.033 48.2588C100.033 46.8696 100.975 45.8796 102.306 45.8796C103.636 45.8796 104.579 46.8696 104.579 48.2588C104.579 49.6564 103.636 50.6297 102.306 50.6297ZM102.306 44.6733C100.157 44.6733 98.6699 46.1791 98.6699 48.2672C98.6699 50.3552 100.166 51.8526 102.306 51.8526C104.455 51.8526 105.942 50.3552 105.942 48.2672C105.95 46.1791 104.455 44.6733 102.306 44.6733ZM96.6205 45.9794H98.1576V44.8231H93.7612V45.9794H95.2983V51.6946H96.6288L96.6205 45.9794ZM88.2824 44.8314V48.7663C88.2824 49.4152 88.2906 50.0141 87.9435 50.3635C87.8278 50.48 87.6378 50.6131 87.332 50.6131C87.1915 50.6131 87.0593 50.5798 86.9519 50.5549V51.7112C87.1337 51.7528 87.3237 51.7778 87.5138 51.7778C88.1749 51.7778 88.6046 51.5532 88.8773 51.3202C89.6376 50.6963 89.6128 49.7562 89.6128 49.0491V46.0044H91.5961V51.7195H92.9266V44.8564H88.2824V44.8314ZM81.0515 51.445C81.3656 51.6031 81.9606 51.8443 82.8365 51.8443C84.01 51.8443 84.8364 51.4284 85.3818 50.8876C85.7206 50.5549 86.3899 49.723 86.3899 48.2672C86.3899 47.2356 86.0263 46.2207 85.3652 45.5801C84.9273 45.1558 84.1257 44.6733 82.82 44.6733C82.3076 44.6733 81.6961 44.7565 81.0433 45.0976V46.6616C81.6631 46.021 82.4151 45.8879 82.8944 45.8879C83.8447 45.8879 84.8033 46.4869 85.0016 47.6682H81.9771V48.8245H85.0347C84.8364 50.0308 83.8447 50.6381 82.853 50.6381C82.2498 50.6381 81.5887 50.4301 81.0515 49.8894V51.445V51.445ZM73.8125 44.8314V51.8277H74.7298L78.4898 47.0609V51.6946H79.8285V44.6733H78.9112L75.1512 49.4401V44.8314H73.8125ZM69.6889 45.9794H70.1516C70.4657 45.9794 70.8127 45.9961 71.0937 46.1957C71.292 46.3371 71.4738 46.595 71.4738 46.9777C71.4738 47.2772 71.3499 47.585 71.102 47.7846C70.8127 48.0009 70.4905 48.0009 70.2343 48.0009H69.6889V45.9794ZM68.3584 44.8314V51.6946H69.6889V49.149H70.5483C71.3334 49.149 71.8953 48.9244 72.2754 48.5417C72.796 48.0176 72.8374 47.2772 72.8374 47.011C72.8374 46.5202 72.6969 45.8463 72.1432 45.3555C71.6391 44.9146 71.1102 44.8314 70.3417 44.8314H68.3584Z" fill="#094076"/>
<path fill-rule="evenodd" clip-rule="evenodd" d="M34.6509 24.2251C34.7004 23.2435 31.9073 23.2601 31.9073 24.2251V29.5493H34.6509V24.2251ZM28.3126 18.6098H23.3378V29.566H28.3126V18.6098ZM30.5024 24.0421V29.5909L29.048 29.5493V17.2205H37.882V29.566L36.1383 29.5743V24.0421C36.1135 21.5131 30.5438 21.5048 30.5024 24.0421ZM30.2793 24.5912C30.238 24.9572 30.205 25.3815 30.1636 25.7891C30.1223 25.8723 30.0645 26.047 29.957 26.1468C29.8579 26.0553 29.8166 25.8307 29.7752 25.7891C29.6926 25.3399 29.7174 25.0737 29.6348 24.6245C28.9819 23.4681 30.8908 23.36 30.2793 24.5912ZM37.0969 24.5912C37.0556 24.9572 37.0226 25.3815 36.9812 25.7891C36.9399 25.8723 36.8821 26.047 36.7746 26.1468C36.6755 26.0553 36.6342 25.8307 36.5928 25.7891C36.5102 25.3399 36.535 25.0737 36.4524 24.6245C35.7995 23.4681 37.7085 23.36 37.0969 24.5912ZM25.8913 49.0491C26.8912 48.2921 26.0483 46.778 25.8582 45.63C25.8995 45.5884 26.0979 45.3056 26.2136 45.2889C29.2298 44.69 31.0974 43.6251 33.4113 41.0379C34.1964 40.3807 35.1632 39.84 35.8656 39.1329C36.1879 38.7668 36.5102 38.3675 36.8325 37.9599C37.3944 37.3942 37.9233 37.286 38.5183 36.8534C39.7496 36.1546 40.5842 35.3394 41.4933 34.4243C42.5841 33.8669 42.8237 33.4177 43.303 32.6939C45.1624 32.3196 47.7241 31.7871 49.6 30.5642C53.5336 27.9937 52.8807 24.5912 48.3605 25.9472C47.2779 25.4064 45.6169 24.8907 44.4104 24.6494V18.5266H45.2698L42.4849 13.3771L35.7747 13.3355L33.3121 11.2974L31.0148 13.3355L24.4864 13.3938L21.7594 18.6348H22.594L22.5692 24.6161C21.3379 24.9323 19.6191 25.3316 18.6357 25.7725C17.3631 25.4813 16.5615 25.6976 15.5533 25.656C12.7106 25.7392 13.099 27.2949 13.9253 28.3264C14.7269 29.333 16.1979 30.3064 18.3464 31.313C21.0156 32.5608 23.784 32.7022 24.098 32.7771C24.255 33.06 24.4038 33.2513 24.6021 33.5341C24.6434 33.6922 24.6848 33.8586 24.7261 34.0166C25.0484 34.4243 25.3706 34.8236 25.7343 35.2312C25.7756 35.3893 25.8169 35.5557 25.8582 35.7137C25.8995 35.7969 25.9408 35.8718 26.0152 35.955C26.0979 36.2378 26.1722 36.5207 26.2549 36.8451C26.3788 37.128 26.4945 37.4524 26.6185 37.7768C26.6185 38.2261 26.6185 38.7086 26.6598 39.1911C26.6185 39.4323 26.5358 39.6736 26.4615 39.9564C26.4201 39.9564 26.2879 40.0812 26.2466 40.1228C25.5525 39.424 25.9656 39.7734 25.1888 39.3824C23.9823 39.3824 23.1973 39.3491 21.9495 39.3076C21.1396 39.3491 21.0487 39.5488 20.5859 40.1977C19.553 42.0196 18.4456 44.1492 17.8919 46.1458C17.7928 46.4952 17.8258 47.011 17.925 47.3604C18.5613 49.6398 24.2385 49.2821 25.8913 49.0491ZM37.0721 17.6365H33.9567C33.8245 17.6365 33.7171 17.7446 33.7171 17.8777V21.7128C33.7171 21.8459 33.8245 21.954 33.9567 21.954H37.0721C37.2044 21.954 37.3118 21.8459 37.3118 21.7128V17.8777C37.3118 17.7446 37.2044 17.6365 37.0721 17.6365ZM35.659 19.3585H35.3698C35.3037 19.3585 35.2541 19.4084 35.2541 19.4667V20.1322C35.2541 20.1904 35.3037 20.2403 35.3698 20.2403H35.6508C35.7169 20.2403 35.7665 20.1904 35.7665 20.1322V19.4667C35.7665 19.4084 35.7169 19.3585 35.659 19.3585ZM35.659 18.1606H35.3698C35.3037 18.1606 35.2541 18.2105 35.2541 18.2687V18.9342C35.2541 18.9925 35.3037 19.0424 35.3698 19.0424H35.6508C35.7169 19.0424 35.7665 18.9925 35.7665 18.9342V18.2687C35.7665 18.2105 35.7169 18.1606 35.659 18.1606ZM35.659 20.5564H35.3698C35.3037 20.5564 35.2541 20.6064 35.2541 20.6646V21.3301C35.2541 21.3884 35.3037 21.4383 35.3698 21.4383H35.6508C35.7169 21.4383 35.7665 21.3884 35.7665 21.3301V20.6646C35.7665 20.598 35.7169 20.5564 35.659 20.5564ZM36.6094 19.3585H36.3284C36.2623 19.3585 36.2127 19.4084 36.2127 19.4667V20.1322C36.2127 20.1904 36.2623 20.2403 36.3284 20.2403H36.6094C36.6755 20.2403 36.7251 20.1904 36.7251 20.1322V19.4667C36.7168 19.4084 36.6672 19.3585 36.6094 19.3585ZM36.6094 18.1606H36.3284C36.2623 18.1606 36.2127 18.2105 36.2127 18.2687V18.9342C36.2127 18.9925 36.2623 19.0424 36.3284 19.0424H36.6094C36.6755 19.0424 36.7251 18.9925 36.7251 18.9342V18.2687C36.7168 18.2105 36.6672 18.1606 36.6094 18.1606ZM36.6094 20.5564H36.3284C36.2623 20.5564 36.2127 20.6064 36.2127 20.6646V21.3301C36.2127 21.3884 36.2623 21.4383 36.3284 21.4383H36.6094C36.6755 21.4383 36.7251 21.3884 36.7251 21.3301V20.6646C36.7168 20.598 36.6672 20.5564 36.6094 20.5564ZM34.7087 19.3585H34.4277C34.3616 19.3585 34.312 19.4084 34.312 19.4667V20.1322C34.312 20.1904 34.3616 20.2403 34.4277 20.2403H34.7087C34.7748 20.2403 34.8244 20.1904 34.8244 20.1322V19.4667C34.8161 19.4084 34.7666 19.3585 34.7087 19.3585ZM34.7087 18.1606H34.4277C34.3616 18.1606 34.312 18.2105 34.312 18.2687V18.9342C34.312 18.9925 34.3616 19.0424 34.4277 19.0424H34.7087C34.7748 19.0424 34.8244 18.9925 34.8244 18.9342V18.2687C34.8161 18.2105 34.7666 18.1606 34.7087 18.1606ZM34.7087 20.5564H34.4277C34.3616 20.5564 34.312 20.6064 34.312 20.6646V21.3301C34.312 21.3884 34.3616 21.4383 34.4277 21.4383H34.7087C34.7748 21.4383 34.8244 21.3884 34.8244 21.3301V20.6646C34.8161 20.598 34.7666 20.5564 34.7087 20.5564ZM33.1469 17.6365H30.0314C29.8992 17.6365 29.7918 17.7446 29.7918 17.8777V21.7128C29.7918 21.8459 29.8992 21.954 30.0314 21.954H33.1469C33.2791 21.954 33.3865 21.8459 33.3865 21.7128V17.8777C33.3865 17.7446 33.2791 17.6365 33.1469 17.6365ZM31.7338 19.3585H31.4528C31.3867 19.3585 31.3371 19.4084 31.3371 19.4667V20.1322C31.3371 20.1904 31.3867 20.2403 31.4528 20.2403H31.7338C31.7999 20.2403 31.8494 20.1904 31.8494 20.1322V19.4667C31.8412 19.4084 31.7916 19.3585 31.7338 19.3585ZM31.7338 18.1606H31.4528C31.3867 18.1606 31.3371 18.2105 31.3371 18.2687V18.9342C31.3371 18.9925 31.3867 19.0424 31.4528 19.0424H31.7338C31.7999 19.0424 31.8494 18.9925 31.8494 18.9342V18.2687C31.8412 18.2105 31.7916 18.1606 31.7338 18.1606ZM31.7338 20.5564H31.4528C31.3867 20.5564 31.3371 20.6064 31.3371 20.6646V21.3301C31.3371 21.3884 31.3867 21.4383 31.4528 21.4383H31.7338C31.7999 21.4383 31.8494 21.3884 31.8494 21.3301V20.6646C31.8412 20.598 31.7916 20.5564 31.7338 20.5564ZM32.6841 19.3585H32.4031C32.337 19.3585 32.2874 19.4084 32.2874 19.4667V20.1322C32.2874 20.1904 32.337 20.2403 32.4031 20.2403H32.6841C32.7502 20.2403 32.7998 20.1904 32.7998 20.1322V19.4667C32.7915 19.4084 32.7419 19.3585 32.6841 19.3585ZM32.6841 18.1606H32.4031C32.337 18.1606 32.2874 18.2105 32.2874 18.2687V18.9342C32.2874 18.9925 32.337 19.0424 32.4031 19.0424H32.6841C32.7502 19.0424 32.7998 18.9925 32.7998 18.9342V18.2687C32.7915 18.2105 32.7419 18.1606 32.6841 18.1606ZM32.6841 20.5564H32.4031C32.337 20.5564 32.2874 20.6064 32.2874 20.6646V21.3301C32.2874 21.3884 32.337 21.4383 32.4031 21.4383H32.6841C32.7502 21.4383 32.7998 21.3884 32.7998 21.3301V20.6646C32.7915 20.598 32.7419 20.5564 32.6841 20.5564ZM30.7834 19.3585H30.5024C30.4363 19.3585 30.3868 19.4084 30.3868 19.4667V20.1322C30.3868 20.1904 30.4363 20.2403 30.5024 20.2403H30.7834C30.8495 20.2403 30.8991 20.1904 30.8991 20.1322V19.4667C30.8991 19.4084 30.8413 19.3585 30.7834 19.3585ZM30.7834 18.1606H30.5024C30.4363 18.1606 30.3868 18.2105 30.3868 18.2687V18.9342C30.3868 18.9925 30.4363 19.0424 30.5024 19.0424H30.7834C30.8495 19.0424 30.8991 18.9925 30.8991 18.9342V18.2687C30.8991 18.2105 30.8413 18.1606 30.7834 18.1606ZM30.7834 20.5481H30.5024C30.4363 20.5481 30.3868 20.598 30.3868 20.6563V21.3218C30.3868 21.38 30.4363 21.4299 30.5024 21.4299H30.7834C30.8495 21.4299 30.8991 21.38 30.8991 21.3218V20.6563C30.8991 20.598 30.8413 20.5481 30.7834 20.5481ZM42.7741 19.0257H39.6587C39.5265 19.0257 39.4191 19.1339 39.4191 19.267V23.1021C39.4191 23.2352 39.5265 23.3433 39.6587 23.3433H42.7741C42.9064 23.3433 43.0138 23.2352 43.0138 23.1021V19.267C43.0138 19.1339 42.9064 19.0257 42.7741 19.0257ZM41.361 20.7478H41.0718C41.0057 20.7478 40.9561 20.7977 40.9561 20.8559V21.5215C40.9561 21.5797 41.0057 21.6296 41.0718 21.6296H41.3528C41.4189 21.6296 41.4685 21.5797 41.4685 21.5215V20.8559C41.4685 20.7977 41.4189 20.7478 41.361 20.7478ZM41.361 19.5498H41.0718C41.0057 19.5498 40.9561 19.5998 40.9561 19.658V20.3235C40.9561 20.3817 41.0057 20.4317 41.0718 20.4317H41.3528C41.4189 20.4317 41.4685 20.3817 41.4685 20.3235V19.658C41.4685 19.5998 41.4189 19.5498 41.361 19.5498ZM41.361 21.9457H41.0718C41.0057 21.9457 40.9561 21.9956 40.9561 22.0539V22.7194C40.9561 22.7776 41.0057 22.8275 41.0718 22.8275H41.3528C41.4189 22.8275 41.4685 22.7776 41.4685 22.7194V22.0539C41.4685 21.9956 41.4189 21.9457 41.361 21.9457ZM42.3114 20.7478H42.0304C41.9643 20.7478 41.9147 20.7977 41.9147 20.8559V21.5215C41.9147 21.5797 41.9643 21.6296 42.0304 21.6296H42.3114C42.3775 21.6296 42.4271 21.5797 42.4271 21.5215V20.8559C42.4188 20.7977 42.3692 20.7478 42.3114 20.7478ZM42.3114 19.5498H42.0304C41.9643 19.5498 41.9147 19.5998 41.9147 19.658V20.3235C41.9147 20.3817 41.9643 20.4317 42.0304 20.4317H42.3114C42.3775 20.4317 42.4271 20.3817 42.4271 20.3235V19.658C42.4188 19.5998 42.3692 19.5498 42.3114 19.5498ZM42.3114 21.9457H42.0304C41.9643 21.9457 41.9147 21.9956 41.9147 22.0539V22.7194C41.9147 22.7776 41.9643 22.8275 42.0304 22.8275H42.3114C42.3775 22.8275 42.4271 22.7776 42.4271 22.7194V22.0539C42.4188 21.9956 42.3692 21.9457 42.3114 21.9457ZM40.4107 20.7478H40.1297C40.0636 20.7478 40.014 20.7977 40.014 20.8559V21.5215C40.014 21.5797 40.0636 21.6296 40.1297 21.6296H40.4107C40.4768 21.6296 40.5264 21.5797 40.5264 21.5215V20.8559C40.5181 20.7977 40.4686 20.7478 40.4107 20.7478ZM40.4107 19.5498H40.1297C40.0636 19.5498 40.014 19.5998 40.014 19.658V20.3235C40.014 20.3817 40.0636 20.4317 40.1297 20.4317H40.4107C40.4768 20.4317 40.5264 20.3817 40.5264 20.3235V19.658C40.5181 19.5998 40.4686 19.5498 40.4107 19.5498ZM40.4107 21.9457H40.1297C40.0636 21.9457 40.014 21.9956 40.014 22.0539V22.7194C40.014 22.7776 40.0636 22.8275 40.1297 22.8275H40.4107C40.4768 22.8275 40.5264 22.7776 40.5264 22.7194V22.0539C40.5181 21.9956 40.4686 21.9457 40.4107 21.9457ZM42.7741 23.909H39.6587C39.5265 23.909 39.4191 24.0172 39.4191 24.1503V27.9853C39.4191 28.1185 39.5265 28.2266 39.6587 28.2266H42.7741C42.9064 28.2266 43.0138 28.1185 43.0138 27.9853V24.1503C43.0138 24.0172 42.9064 23.909 42.7741 23.909ZM41.361 25.6311H41.0718C41.0057 25.6311 40.9561 25.681 40.9561 25.7392V26.4047C40.9561 26.463 41.0057 26.5129 41.0718 26.5129H41.3528C41.4189 26.5129 41.4685 26.463 41.4685 26.4047V25.7392C41.4685 25.681 41.4189 25.6311 41.361 25.6311ZM41.361 24.4331H41.0718C41.0057 24.4331 40.9561 24.483 40.9561 24.5413V25.2068C40.9561 25.265 41.0057 25.3149 41.0718 25.3149H41.3528C41.4189 25.3149 41.4685 25.265 41.4685 25.2068V24.5413C41.4685 24.483 41.4189 24.4331 41.361 24.4331ZM41.361 26.829H41.0718C41.0057 26.829 40.9561 26.8789 40.9561 26.9371V27.6027C40.9561 27.6609 41.0057 27.7108 41.0718 27.7108H41.3528C41.4189 27.7108 41.4685 27.6609 41.4685 27.6027V26.9371C41.4685 26.8789 41.4189 26.829 41.361 26.829ZM42.3114 25.6311H42.0304C41.9643 25.6311 41.9147 25.681 41.9147 25.7392V26.4047C41.9147 26.463 41.9643 26.5129 42.0304 26.5129H42.3114C42.3775 26.5129 42.4271 26.463 42.4271 26.4047V25.7392C42.4188 25.681 42.3692 25.6311 42.3114 25.6311ZM42.3114 24.4331H42.0304C41.9643 24.4331 41.9147 24.483 41.9147 24.5413V25.2068C41.9147 25.265 41.9643 25.3149 42.0304 25.3149H42.3114C42.3775 25.3149 42.4271 25.265 42.4271 25.2068V24.5413C42.4188 24.483 42.3692 24.4331 42.3114 24.4331ZM42.3114 26.829H42.0304C41.9643 26.829 41.9147 26.8789 41.9147 26.9371V27.6027C41.9147 27.6609 41.9643 27.7108 42.0304 27.7108H42.3114C42.3775 27.7108 42.4271 27.6609 42.4271 27.6027V26.9371C42.4188 26.8789 42.3692 26.829 42.3114 26.829ZM40.4107 25.6311H40.1297C40.0636 25.6311 40.014 25.681 40.014 25.7392V26.4047C40.014 26.463 40.0636 26.5129 40.1297 26.5129H40.4107C40.4768 26.5129 40.5264 26.463 40.5264 26.4047V25.7392C40.5181 25.681 40.4686 25.6311 40.4107 25.6311ZM40.4107 24.4331H40.1297C40.0636 24.4331 40.014 24.483 40.014 24.5413V25.2068C40.014 25.265 40.0636 25.3149 40.1297 25.3149H40.4107C40.4768 25.3149 40.5264 25.265 40.5264 25.2068V24.5413C40.5181 24.483 40.4686 24.4331 40.4107 24.4331ZM40.4107 26.829H40.1297C40.0636 26.829 40.014 26.8789 40.014 26.9371V27.6027C40.014 27.6609 40.0636 27.7108 40.1297 27.7108H40.4107C40.4768 27.7108 40.5264 27.6609 40.5264 27.6027V26.9371C40.5181 26.8789 40.4686 26.829 40.4107 26.829ZM27.387 23.909H24.2716C24.1393 23.909 24.0319 24.0172 24.0319 24.1503V27.9853C24.0319 28.1185 24.1393 28.2266 24.2716 28.2266H27.387C27.5192 28.2266 27.6267 28.1185 27.6267 27.9853V24.1503C27.6267 24.0172 27.5192 23.909 27.387 23.909ZM25.9656 25.6311H25.6847C25.6186 25.6311 25.569 25.681 25.569 25.7392V26.4047C25.569 26.463 25.6186 26.5129 25.6847 26.5129H25.9656C26.0318 26.5129 26.0813 26.463 26.0813 26.4047V25.7392C26.0813 25.681 26.0318 25.6311 25.9656 25.6311ZM25.9656 24.4331H25.6847C25.6186 24.4331 25.569 24.483 25.569 24.5413V25.2068C25.569 25.265 25.6186 25.3149 25.6847 25.3149H25.9656C26.0318 25.3149 26.0813 25.265 26.0813 25.2068V24.5413C26.0813 24.483 26.0318 24.4331 25.9656 24.4331ZM25.9656 26.829H25.6847C25.6186 26.829 25.569 26.8789 25.569 26.9371V27.6027C25.569 27.6609 25.6186 27.7108 25.6847 27.7108H25.9656C26.0318 27.7108 26.0813 27.6609 26.0813 27.6027V26.9371C26.0813 26.8789 26.0318 26.829 25.9656 26.829ZM26.916 25.6311H26.635C26.5689 25.6311 26.5193 25.681 26.5193 25.7392V26.4047C26.5193 26.463 26.5689 26.5129 26.635 26.5129H26.916C26.9821 26.5129 27.0317 26.463 27.0317 26.4047V25.7392C27.0317 25.681 26.9821 25.6311 26.916 25.6311ZM26.916 24.4331H26.635C26.5689 24.4331 26.5193 24.483 26.5193 24.5413V25.2068C26.5193 25.265 26.5689 25.3149 26.635 25.3149H26.916C26.9821 25.3149 27.0317 25.265 27.0317 25.2068V24.5413C27.0317 24.483 26.9821 24.4331 26.916 24.4331ZM26.916 26.829H26.635C26.5689 26.829 26.5193 26.8789 26.5193 26.9371V27.6027C26.5193 27.6609 26.5689 27.7108 26.635 27.7108H26.916C26.9821 27.7108 27.0317 27.6609 27.0317 27.6027V26.9371C27.0317 26.8789 26.9821 26.829 26.916 26.829ZM25.0153 25.6311H24.7343C24.6682 25.6311 24.6186 25.681 24.6186 25.7392V26.4047C24.6186 26.463 24.6682 26.5129 24.7343 26.5129H25.0153C25.0814 26.5129 25.131 26.463 25.131 26.4047V25.7392C25.131 25.681 25.0814 25.6311 25.0153 25.6311ZM25.0153 24.4331H24.7343C24.6682 24.4331 24.6186 24.483 24.6186 24.5413V25.2068C24.6186 25.265 24.6682 25.3149 24.7343 25.3149H25.0153C25.0814 25.3149 25.131 25.265 25.131 25.2068V24.5413C25.131 24.483 25.0814 24.4331 25.0153 24.4331ZM25.0153 26.829H24.7343C24.6682 26.829 24.6186 26.8789 24.6186 26.9371V27.6027C24.6186 27.6609 24.6682 27.7108 24.7343 27.7108H25.0153C25.0814 27.7108 25.131 27.6609 25.131 27.6027V26.9371C25.131 26.8789 25.0814 26.829 25.0153 26.829ZM27.387 19.0257H24.2716C24.1393 19.0257 24.0319 19.1339 24.0319 19.267V23.1021C24.0319 23.2352 24.1393 23.3433 24.2716 23.3433H27.387C27.5192 23.3433 27.6267 23.2352 27.6267 23.1021V19.267C27.6267 19.1339 27.5192 19.0257 27.387 19.0257ZM25.9656 20.7478H25.6847C25.6186 20.7478 25.569 20.7977 25.569 20.8559V21.5215C25.569 21.5797 25.6186 21.6296 25.6847 21.6296H25.9656C26.0318 21.6296 26.0813 21.5797 26.0813 21.5215V20.8559C26.0813 20.7977 26.0318 20.7478 25.9656 20.7478ZM25.9656 19.5498H25.6847C25.6186 19.5498 25.569 19.5998 25.569 19.658V20.3235C25.569 20.3817 25.6186 20.4317 25.6847 20.4317H25.9656C26.0318 20.4317 26.0813 20.3817 26.0813 20.3235V19.658C26.0813 19.5998 26.0318 19.5498 25.9656 19.5498ZM25.9656 21.9457H25.6847C25.6186 21.9457 25.569 21.9956 25.569 22.0539V22.7194C25.569 22.7776 25.6186 22.8275 25.6847 22.8275H25.9656C26.0318 22.8275 26.0813 22.7776 26.0813 22.7194V22.0539C26.0813 21.9956 26.0318 21.9457 25.9656 21.9457ZM26.916 20.7478H26.635C26.5689 20.7478 26.5193 20.7977 26.5193 20.8559V21.5215C26.5193 21.5797 26.5689 21.6296 26.635 21.6296H26.916C26.9821 21.6296 27.0317 21.5797 27.0317 21.5215V20.8559C27.0317 20.7977 26.9821 20.7478 26.916 20.7478ZM26.916 19.5498H26.635C26.5689 19.5498 26.5193 19.5998 26.5193 19.658V20.3235C26.5193 20.3817 26.5689 20.4317 26.635 20.4317H26.916C26.9821 20.4317 27.0317 20.3817 27.0317 20.3235V19.658C27.0317 19.5998 26.9821 19.5498 26.916 19.5498ZM26.916 21.9457H26.635C26.5689 21.9457 26.5193 21.9956 26.5193 22.0539V22.7194C26.5193 22.7776 26.5689 22.8275 26.635 22.8275H26.916C26.9821 22.8275 27.0317 22.7776 27.0317 22.7194V22.0539C27.0317 21.9956 26.9821 21.9457 26.916 21.9457ZM25.0153 20.7478H24.7343C24.6682 20.7478 24.6186 20.7977 24.6186 20.8559V21.5215C24.6186 21.5797 24.6682 21.6296 24.7343 21.6296H25.0153C25.0814 21.6296 25.131 21.5797 25.131 21.5215V20.8559C25.131 20.7977 25.0814 20.7478 25.0153 20.7478ZM25.0153 19.5498H24.7343C24.6682 19.5498 24.6186 19.5998 24.6186 19.658V20.3235C24.6186 20.3817 24.6682 20.4317 24.7343 20.4317H25.0153C25.0814 20.4317 25.131 20.3817 25.131 20.3235V19.658C25.131 19.5998 25.0814 19.5498 25.0153 19.5498ZM25.0153 21.9457H24.7343C24.6682 21.9457 24.6186 21.9956 24.6186 22.0539V22.7194C24.6186 22.7776 24.6682 22.8275 24.7343 22.8275H25.0153C25.0814 22.8275 25.131 22.7776 25.131 22.7194V22.0539C25.131 21.9956 25.0814 21.9457 25.0153 21.9457ZM43.5923 18.6098H38.6175V29.566H43.5923V18.6098ZM32.3866 24.4082H34.2459C34.7252 23.3683 31.8825 23.3849 32.3866 24.4082ZM34.0972 28.0602H33.7336C33.6262 28.0602 33.5353 28.1517 33.5353 28.2599V29.1334C33.5353 29.2415 33.6262 29.333 33.7336 29.333H34.0972C34.2046 29.333 34.2955 29.2415 34.2955 29.1334V28.2599C34.3038 28.1517 34.2129 28.0602 34.0972 28.0602ZM32.8741 28.0602H32.5105C32.4031 28.0602 32.3122 28.1517 32.3122 28.2599V29.1334C32.3122 29.2415 32.4031 29.333 32.5105 29.333H32.8741C32.9816 29.333 33.0725 29.2415 33.0725 29.1334V28.2599C33.0725 28.1517 32.9816 28.0602 32.8741 28.0602ZM34.0972 26.3881H33.7336C33.6262 26.3881 33.5353 26.4796 33.5353 26.5877V27.4612C33.5353 27.5694 33.6262 27.6609 33.7336 27.6609H34.0972C34.2046 27.6609 34.2955 27.5694 34.2955 27.4612V26.5877C34.3038 26.4796 34.2129 26.3881 34.0972 26.3881ZM32.8741 26.3881H32.5105C32.4031 26.3881 32.3122 26.4796 32.3122 26.5877V27.4612C32.3122 27.5694 32.4031 27.6609 32.5105 27.6609H32.8741C32.9816 27.6609 33.0725 27.5694 33.0725 27.4612V26.5877C33.0725 26.4796 32.9816 26.3881 32.8741 26.3881ZM34.0972 24.716H33.7336C33.6262 24.716 33.5353 24.8075 33.5353 24.9156V25.7891C33.5353 25.8973 33.6262 25.9888 33.7336 25.9888H34.0972C34.2046 25.9888 34.2955 25.8973 34.2955 25.7891V24.9156C34.3038 24.8075 34.2129 24.716 34.0972 24.716ZM32.8741 24.716H32.5105C32.4031 24.716 32.3122 24.8075 32.3122 24.9156V25.7891C32.3122 25.8973 32.4031 25.9888 32.5105 25.9888H32.8741C32.9816 25.9888 33.0725 25.8973 33.0725 25.7891V24.9156C33.0725 24.8075 32.9816 24.716 32.8741 24.716ZM51.2776 26.7957C51.8726 26.7292 51.5668 26.255 51.1536 26.2883C50.5256 26.3382 50.6908 26.854 51.2776 26.7957ZM14.6278 26.7042C14.6443 26.2051 13.4543 26.4214 13.6939 26.8373C13.8592 27.1285 14.6195 26.9122 14.6278 26.7042ZM15.9252 28.5094C15.9169 27.9853 16.0409 27.5361 16.4127 27.1784C16.4127 26.9371 16.2474 26.8623 16.0904 26.7042C15.8508 26.7042 15.6029 26.7042 15.3219 26.7042C15.1318 27.0869 14.793 27.4862 14.9418 27.9521C15.1814 28.1101 15.4045 28.3347 15.6442 28.5427C15.7351 28.5926 15.8508 28.5594 15.9252 28.5094ZM50.3024 28.6342C50.5338 28.0685 50.7817 28.3431 50.8396 27.7275C50.4925 27.4862 50.3685 27.2865 50.2033 26.9455C49.9719 26.9288 49.9471 27.1784 49.724 27.1701C49.5752 27.2699 49.6248 27.4612 49.724 27.5278C49.914 27.9105 50.0132 28.16 49.9884 28.6259C50.0958 28.7091 50.195 28.7008 50.3024 28.6342ZM35.3863 24.0338L35.3781 29.3164H35.6177V24.1336C35.6177 22.1121 31.0065 22.0622 31.0065 24.1336V29.3164H31.2379V24.0338C31.2462 22.4781 35.3863 22.395 35.3863 24.0338ZM45.4847 26.9787C45.402 27.2865 45.5673 27.3864 45.8069 27.4529C47.6993 28.002 47.6167 28.393 47.5506 29.3413L47.815 29.566C48.5423 28.3264 47.3275 27.2949 45.4847 26.9787ZM17.5118 29.907C16.14 27.8772 17.9663 27.1451 20.4124 26.047C20.2884 26.072 20.1893 26.0636 20.0653 26.0886C17.5779 26.6709 15.2971 28.4346 17.5118 29.907ZM44.4021 25.4397V25.7475C46.3441 26.2217 50.1702 27.6359 48.4018 30.0401L48.22 29.8239C49.1703 27.4696 46.8647 26.8456 44.4021 26.1801V27.3115C46.8647 27.7275 48.4761 29.2582 46.6168 31.1383C50.3024 30.4145 49.319 27.7358 48.5092 27.1202C47.501 26.3382 46.2449 25.8224 44.4021 25.4397ZM27.6515 32.278C26.354 32.2447 22.123 31.6374 20.8421 31.263C19.9331 30.9968 19.2141 30.4145 18.7844 29.932C18.2308 29.2998 18.2638 29.0668 18.7762 28.4263C19.5777 27.4363 21.057 27.195 22.561 26.4713V25.9389C21.371 26.2217 18.6357 26.9122 17.7267 27.8273C17.3383 28.2266 17.2391 28.6758 17.4044 29.0419C18.396 30.3812 19.2555 31.0301 20.5942 31.3878C23.2138 32.0949 26.9408 32.436 28.3208 32.4693C28.2051 32.4028 27.8828 32.3362 27.6515 32.278ZM42.2618 31.5126C43.8402 31.288 45.3772 31.313 46.5011 30.2814C47.2448 28.784 45.8648 28.6758 44.3938 28.0353V30.2232H36.2292L36.0309 30.8305H30.552L30.2628 30.2564L22.561 30.2814V27.2283C22.4783 27.2283 22.437 27.2533 22.3544 27.22C21.5528 27.586 20.6686 28.0519 19.8174 28.4096C18.049 29.2998 20.3876 30.5393 21.5032 30.7972C27.7093 32.2447 35.7086 32.3362 42.2618 31.5126ZM38.1134 34.0333C38.477 33.7504 38.8654 33.5009 39.262 33.218C39.105 33.1431 38.7497 33.243 38.6009 33.1931C38.2869 33.3511 38.3117 33.426 38.0721 33.6672C37.9894 33.7504 37.7746 33.9834 37.6589 34.1082C37.7415 34.0998 37.9894 33.9917 38.1134 34.0333ZM36.4276 34.3411C36.4689 34.3411 36.5515 34.3078 36.6342 34.2662C36.7581 34.1414 36.9151 34.025 37.0804 33.8586C37.2044 33.817 37.3201 33.7338 37.444 33.6589C37.5267 33.5009 37.6671 33.401 37.7498 33.2347C37.3118 33.2846 37.3118 33.243 36.6837 33.2929C36.4441 33.7005 36.0392 34.2912 35.7499 34.7404C35.8574 34.7404 36.3201 34.416 36.4276 34.3411ZM30.3785 37.0115C30.5768 36.9699 30.8826 36.7786 31.1222 36.6954C31.4445 36.5373 31.7668 36.3293 32.1304 36.1297C32.5767 35.9716 33.0146 35.8052 33.4609 35.6056C33.9236 35.5723 34.3947 35.2645 34.75 34.9983C35.2789 34.4659 35.5186 34.1082 35.9152 33.5009C35.9565 33.4177 35.9979 33.3428 36.0392 33.218C32.9485 33.3095 29.8661 33.4759 26.792 33.0932C26.792 33.2097 27.4035 33.792 27.5192 33.9002C27.825 34.4825 28.734 35.0232 29.205 35.5973C29.4447 35.9633 29.7835 36.7203 30.0645 37.0032C30.1306 37.0115 30.2545 37.0115 30.3785 37.0115ZM37.2787 36.9034C37.2787 36.8618 37.3201 36.8202 37.3614 36.7786C37.6423 36.6205 37.9233 36.4541 38.2456 36.2961C38.2869 36.2545 38.3282 36.2129 38.3696 36.1713C38.3282 36.1713 38.2456 36.1713 38.1712 36.1297C37.9729 36.2545 37.7663 36.3709 37.568 36.4957C37.5267 36.5373 37.4853 36.5789 37.444 36.6538C37.4027 36.6538 37.3201 36.6954 37.2457 36.737C37.2457 36.7786 37.2044 36.8202 37.163 36.8618C37.1961 36.8618 37.2374 36.8618 37.2787 36.9034ZM25.6103 44.7732C28.5935 44.2241 29.8909 43.7083 31.2214 42.0279C31.5024 41.745 31.7255 41.4289 32.0478 41.1877C33.1303 40.6386 34.5186 39.3325 35.5433 38.5588C35.8078 38.1512 36.0557 37.9682 36.4276 37.6687C36.5102 37.5439 36.5846 37.4274 36.6672 37.2611C36.6259 37.2611 36.5846 37.2611 36.5433 37.2195C36.3036 37.3443 36.0226 37.4607 35.7417 37.6271C35.659 37.7103 35.5847 37.7852 35.4607 37.91C35.3781 37.91 35.2624 37.91 35.1384 37.91C35.0558 37.8684 34.9814 37.7852 34.8575 37.7103C34.8575 37.6687 34.8575 37.6271 34.8161 37.5522C34.8161 37.5106 34.8161 37.469 34.8575 37.4274C35.3698 37.1696 35.7417 36.9117 36.2623 36.6954C36.3862 36.6122 36.5019 36.5373 36.6672 36.4125C36.8242 36.3293 37.0308 36.2545 37.2292 36.1297C37.2705 36.0881 37.3118 36.0049 37.3531 35.93C37.9481 35.6305 38.5679 35.4974 39.1629 35.1979C39.3612 34.9983 39.5678 34.7903 39.7661 34.5907C39.8075 34.5491 39.8901 34.5075 39.9645 34.4659C40.0058 34.4243 40.0471 34.3827 40.0884 34.3078C40.4107 34.1082 40.733 33.9002 41.0553 33.6589C41.0966 33.6173 41.1379 33.5757 41.1792 33.5009C41.5346 33.3178 41.7164 33.3095 41.9973 33.0184C41.2619 33.06 40.6008 33.1016 40.0884 33.0932C39.6835 33.4177 39.4356 33.7421 39.0307 34.0666C38.9067 34.1498 38.6009 34.2246 38.4357 34.3078C37.882 35.0482 37.4275 35.1148 36.3449 35.1148C35.94 35.2728 35.5268 35.5973 35.0888 35.8052C34.8905 35.8052 34.5352 35.8385 34.2955 35.8718C33.5683 36.113 32.9651 36.2461 32.2461 36.529C32.2461 36.529 32.2461 36.5706 32.2048 36.6122C31.7999 36.7702 31.4032 36.9366 30.9983 37.1363C30.8413 37.2195 30.676 37.3359 30.519 37.4607C30.5603 37.5023 30.6016 37.5439 30.6429 37.6188C30.6429 37.702 30.6429 37.8184 30.6843 37.9432C30.5603 37.9432 30.4033 37.9432 30.238 37.9432C30.0397 37.7852 29.8331 37.6188 29.6348 37.4191C29.4777 37.1363 29.3125 36.8534 29.1141 36.5706C28.9571 36.2461 28.7918 35.8801 28.5935 35.5141C28.1473 35.1064 27.7093 34.7071 27.23 34.2995C27.073 34.0998 26.9077 33.8919 26.7094 33.6922C26.5524 33.5674 26.3871 33.451 26.1888 33.2846C25.7838 33.1265 25.3459 32.9601 24.8996 32.8021C24.8996 32.8853 24.8583 32.9601 24.817 33.0849C25.0979 33.5674 25.4202 34.0998 25.7425 34.6239C25.7838 34.6655 25.8665 34.7071 25.9408 34.7487C26.0235 34.9068 26.0979 35.0732 26.2218 35.2312C26.3788 35.6805 26.5441 36.163 26.7424 36.6455C26.7838 36.8451 26.8251 37.0947 26.8994 37.3359C26.9821 37.5356 27.0978 37.7436 27.2217 37.9432C27.2217 38.1013 27.2217 38.2677 27.2217 38.4673C27.1804 38.9166 27.0978 39.3991 27.0234 39.8816C27.0647 40.4889 27.106 41.0961 27.1474 41.7034C27.106 41.745 27.0234 41.7866 26.949 41.8282C26.8664 41.745 26.792 41.6702 26.6681 41.587C26.6267 41.3041 26.5854 41.0213 26.5441 40.6968C26.5028 40.6968 26.4615 40.6552 26.4201 40.6136C26.2962 40.6968 26.1805 40.7717 26.0152 40.8965C25.7756 40.8965 25.5359 40.9381 25.288 40.9797C25.2467 41.0213 25.2054 41.0629 25.131 41.1045C25.131 42.161 25.1475 43.2175 25.0484 44.2657C25.0318 44.4321 25.2302 44.848 25.6103 44.7732ZM23.5609 48.2339C23.4865 47.976 23.1146 48.0425 23.1146 47.585C23.1146 47.377 23.313 47.1025 23.313 47.0609C23.346 46.6616 23.2799 46.2456 23.313 45.8463C23.4039 44.8148 23.9906 46.62 24.0732 46.8446C24.2881 47.402 24.5856 47.3188 24.3955 48.0758C24.3542 48.0758 24.3129 48.0758 24.2716 48.1174C24.2716 48.159 24.2716 48.2755 24.2716 48.3503C24.379 48.3503 24.5112 48.367 24.5939 48.2755C24.7591 47.4436 24.7261 46.5368 24.6352 45.5635C24.4699 44.0411 24.4038 42.5603 24.5112 41.0296C24.5856 40.5637 25.007 40.0812 24.5525 39.8566C23.5278 40.0812 21.5611 39.7984 21.2553 39.9398C21.1727 40.023 21.0983 40.0979 20.9743 40.1811C20.0818 42.2109 18.7844 44.1076 18.2803 46.2539C18.082 47.1025 18.239 47.402 19.1646 47.7514C19.2389 47.7763 19.4703 47.793 19.4455 47.6682C19.4042 47.4519 19.1232 47.2522 19.4042 46.9028C19.6025 46.6616 19.553 46.7947 19.5612 46.6616C19.743 44.8813 19.867 44.9395 20.2884 46.4619C20.305 46.5202 20.338 46.6117 20.4124 46.6616C20.776 46.9527 20.9826 47.4103 20.5694 47.7181C20.4702 47.793 20.3132 47.8096 20.1645 47.9178C19.9 48.1174 21.4371 48.55 21.652 48.2588C21.7429 48.1424 21.4867 47.9593 21.371 47.793C21.1065 47.4186 21.4867 47.1358 21.5693 46.9028C21.5776 46.8862 21.5693 44.7482 21.9742 45.5635C22.1065 45.8297 22.1313 46.1292 22.2139 46.4536C22.2469 46.5784 22.3213 46.7032 22.4122 46.8612C22.4453 46.9111 22.5114 46.9195 22.5692 46.986C22.7097 47.1274 22.7676 47.7181 22.6106 47.8762C22.5444 47.9427 22.3874 47.976 22.2883 48.0758C22.2635 48.1008 22.2304 48.2256 22.2883 48.2755C22.4618 48.4086 23.6435 48.525 23.5609 48.2339ZM33.3534 12.096L30.9735 14.2922L28.5935 16.4884H33.3534H38.1134L35.7334 14.2922L33.3534 12.096ZM30.1554 15.9976C31.2297 15.0243 32.2874 14.0426 33.3452 13.061C34.4195 14.051 35.502 15.0409 36.5763 16.0475H37.0556L33.3452 12.5785L29.6348 15.9976H30.1554ZM33.4857 14.442C32.4362 14.4503 31.8825 14.991 31.7751 16.0725H35.1963C35.0971 15.0077 34.5352 14.4253 33.4857 14.442Z" fill="#094076"/>
<path fill-rule="evenodd" clip-rule="evenodd" d="M10.3881 31.171L6.23145 31.0629V31.0047L6.2645 29.8317L7.92552 29.8733L6.29756 28.6254V28.5672L6.33061 27.1945L8.30565 28.8334L10.4955 27.2611V27.3193L10.4542 28.7835L8.7271 29.8899L10.4294 29.9315V29.9897L10.3881 31.171ZM6.40498 26.1047L6.76859 24.1082C6.8347 23.7338 6.95039 23.4759 7.11567 23.3262C7.28094 23.1765 7.44622 23.0933 7.61976 23.0683C7.7024 23.0517 7.77677 23.0517 7.84288 23.0517C7.90899 23.0517 7.9751 23.06 8.03295 23.0683C8.23954 23.1099 8.41308 23.2014 8.53704 23.3595C8.66099 23.5175 8.74363 23.6839 8.76842 23.8669H8.77669C8.79321 23.8253 8.82627 23.7671 8.85932 23.7089C8.89238 23.6506 8.94196 23.5841 8.99981 23.5258C9.09897 23.4177 9.22293 23.3262 9.37994 23.2513C9.53695 23.1765 9.74355 23.1598 9.9832 23.2014C10.008 23.2097 10.0328 23.2097 10.0493 23.218C10.0741 23.2264 10.0906 23.2264 10.1154 23.2347C10.3633 23.3096 10.5699 23.4676 10.7435 23.7172C10.917 23.9668 10.9583 24.3162 10.8757 24.7654L10.8674 24.8236L10.479 26.9283L6.38846 26.163L6.40498 26.1047ZM9.89229 25.5557L9.97493 25.0815C9.9832 25.0482 9.9832 25.0066 9.99146 24.9567C9.99972 24.9068 9.99972 24.8569 9.99972 24.7987C9.99972 24.7072 9.96667 24.624 9.92535 24.5408C9.87577 24.4576 9.78487 24.4077 9.65265 24.3827C9.52043 24.3578 9.42126 24.3744 9.35515 24.4409C9.28904 24.4992 9.23119 24.574 9.19814 24.6489C9.18161 24.6905 9.16508 24.7404 9.15682 24.782C9.14856 24.8236 9.14029 24.8652 9.13203 24.8985L9.04113 25.3893L9.89229 25.5557ZM8.23128 25.2479L8.30565 24.8236C8.33871 24.6572 8.33044 24.5325 8.29739 24.4409C8.25607 24.3578 8.20649 24.2995 8.14864 24.2579C8.12385 24.2496 8.10732 24.233 8.08253 24.233C8.05774 24.2246 8.04121 24.2246 8.02468 24.2163C7.91725 24.1997 7.81809 24.2163 7.71892 24.2746C7.61976 24.3328 7.55365 24.4659 7.52059 24.6656L7.44622 25.0898L8.23128 25.2479ZM11.0905 23.2763L7.76851 20.3563L7.7933 20.2981L8.31391 18.9753L12.7268 19.1251L12.702 19.1833L12.2475 20.348L11.4872 20.2981L10.9914 21.5626L11.5781 22.0451L11.5533 22.1033L11.0905 23.2763ZM9.01634 20.0568L10.2228 21.0135L10.5534 20.1816L9.01634 20.0568ZM12.9168 18.8672L9.40473 16.6211L9.43779 16.5711L10.3799 15.082C10.6195 14.7077 10.8757 14.4747 11.1567 14.3916C11.4376 14.3084 11.6938 14.3001 11.9252 14.3583C12.0078 14.3832 12.0905 14.4082 12.1648 14.4415C12.2392 14.4747 12.3053 14.508 12.3714 14.5496C12.4293 14.5912 12.4954 14.6328 12.5532 14.691C12.6193 14.7493 12.6772 14.8075 12.7268 14.8741C12.8838 15.0571 12.9829 15.2983 13.0243 15.5895C13.0656 15.8807 12.9664 16.2134 12.735 16.5961L12.421 17.0952L13.5779 17.8356L13.5449 17.8856L12.9168 18.8672ZM10.8344 16.072L11.6442 16.5878L11.793 16.3548C11.8839 16.2134 11.9252 16.0886 11.9252 15.9888C11.9169 15.889 11.9004 15.8141 11.8591 15.7559C11.8343 15.7226 11.8012 15.6893 11.7682 15.6644C11.7351 15.6394 11.7103 15.6228 11.6938 15.6061C11.6773 15.5895 11.6525 15.5812 11.636 15.5729C11.6194 15.5645 11.5946 15.5479 11.5698 15.5396C11.4872 15.5146 11.3963 15.5146 11.2971 15.5396C11.198 15.5729 11.0905 15.6644 10.9914 15.8308L10.8344 16.072ZM15.4042 15.1486L12.9995 13.0855L12.4045 13.7843L11.6442 13.1354L11.6855 13.0938L13.6275 10.7977L14.3878 11.4466L13.7928 12.1454L16.1976 14.2085L16.1562 14.2501L15.4042 15.1486ZM14.5035 9.80777L15.3794 9.10066L16.8752 10.9974L16.5859 8.12733L16.6355 8.09406L17.528 7.37862L20.1146 10.6563L20.065 10.6896L19.189 11.3967L17.6933 9.50829L17.9908 12.3534L17.9412 12.3867L17.0322 13.1187L14.4622 9.84937L14.5035 9.80777ZM20.7674 10.1988L18.842 6.48848L18.8915 6.46353L20.4451 5.64826C20.8418 5.44029 21.1806 5.37373 21.4616 5.44029C21.7425 5.50684 21.9739 5.6233 22.1475 5.798C22.2136 5.85624 22.2632 5.92279 22.3127 5.98934C22.3623 6.05589 22.4036 6.12245 22.4367 6.189C22.4698 6.25555 22.5028 6.3221 22.5276 6.40529C22.5524 6.48016 22.5772 6.56335 22.5854 6.65486C22.6268 6.89612 22.5937 7.15401 22.4863 7.42853C22.3789 7.70306 22.1309 7.94431 21.7343 8.15229L21.2137 8.42682L21.85 9.64971L21.8004 9.67467L20.7674 10.1988ZM20.3542 6.72973L20.7922 7.58659L21.0319 7.46181C21.1806 7.38694 21.2798 7.30375 21.3211 7.21224C21.3624 7.12905 21.3872 7.04586 21.3789 6.97931C21.3707 6.92939 21.3624 6.8878 21.3459 6.85452C21.3294 6.82124 21.3211 6.78797 21.3046 6.76301C21.2963 6.73805 21.2798 6.72142 21.2715 6.69646C21.255 6.67982 21.2467 6.65486 21.2302 6.63823C21.1723 6.57167 21.098 6.53008 20.9905 6.50512C20.8914 6.48016 20.7509 6.51344 20.5773 6.60495L20.3542 6.72973ZM24.1969 8.3769L23.0152 4.35881L23.073 4.34217L24.1886 4.00941L24.6514 5.57339L25.2381 5.39869C25.3208 5.37373 25.4199 5.34878 25.5521 5.3155C25.6844 5.28222 25.8248 5.26559 25.9819 5.26559C26.2132 5.26559 26.4446 5.32382 26.6677 5.43197C26.8909 5.54843 27.0561 5.78968 27.1636 6.1474C27.271 6.50512 27.2627 6.79629 27.1305 7.0209C26.9983 7.24551 26.8413 7.42021 26.6512 7.53668C26.519 7.61987 26.395 7.68642 26.2628 7.73634C26.1306 7.78625 26.0314 7.81953 25.9488 7.84448L25.891 7.86112L24.1969 8.3769ZM25.1307 7.22056L25.5521 7.09577C25.7174 7.04586 25.8414 6.97931 25.9323 6.8878C26.0149 6.79629 26.0397 6.6715 25.9901 6.50512C25.9405 6.34706 25.8579 6.24723 25.7422 6.22227C25.6265 6.19732 25.4778 6.20564 25.3042 6.25555L24.8828 6.38034L25.1307 7.22056ZM27.7007 7.3287L26.519 3.31061L26.5768 3.29398L27.6925 2.96122L28.8742 6.97931L28.8163 6.99594L27.7007 7.3287ZM34.9067 2.62845L37.9561 2.97785L37.6007 6.13908L38.0965 6.19732L37.8899 8.0275L37.8321 8.01918L36.8404 7.90272L36.9313 7.07081L34.6092 6.80461L34.5183 7.63651L34.4605 7.62819L33.4688 7.51172L33.6754 5.68154C33.692 5.68154 33.7167 5.68154 33.7333 5.68154C33.7498 5.68154 33.7663 5.68154 33.7911 5.68154C33.9564 5.6649 34.1217 5.59835 34.2869 5.46524C34.444 5.33214 34.5514 5.11584 34.6092 4.82468C34.6175 4.77476 34.6258 4.73317 34.634 4.68325C34.6423 4.63334 34.6423 4.58343 34.6505 4.53351C34.6505 4.51687 34.6505 4.50024 34.6588 4.4836C34.6588 4.46696 34.6588 4.45032 34.6671 4.43368L34.8737 2.61182L34.9067 2.62845ZM35.8571 3.7432L35.7496 4.73317C35.7166 4.99106 35.667 5.22399 35.6009 5.41533C35.5265 5.60667 35.386 5.75641 35.1794 5.85624L36.3859 5.99766L36.6339 3.83471L35.8571 3.7432ZM40.2534 8.15229C39.5675 7.8944 39.1295 7.49509 38.9229 6.94603C38.7163 6.39697 38.7246 5.84792 38.9312 5.29054C39.1378 4.74149 39.4931 4.32554 39.9972 4.04269C40.5013 3.75984 41.1046 3.7432 41.7987 4.00941L41.8566 4.03437C42.5507 4.29226 42.997 4.69989 43.1953 5.24895C43.3936 5.798 43.3853 6.34706 43.187 6.89612C42.9804 7.44517 42.6251 7.86112 42.121 8.14397C41.6169 8.42682 41.0219 8.43514 40.3195 8.17725L40.2534 8.15229ZM40.6253 7.22056C40.6583 7.2372 40.6996 7.24551 40.7409 7.25383C40.7823 7.26215 40.8318 7.27047 40.8732 7.27047C41.0715 7.28711 41.2698 7.2372 41.4847 7.12905C41.6913 7.01258 41.8648 6.78797 41.9888 6.44689C42.1127 6.10581 42.1375 5.82296 42.0466 5.59835C41.964 5.37373 41.84 5.19903 41.683 5.09089C41.65 5.06593 41.6086 5.04097 41.5756 5.01602C41.5425 4.99106 41.5012 4.97442 41.4682 4.95778C41.4268 4.94114 41.3855 4.93283 41.3359 4.92451C41.2864 4.91619 41.245 4.90787 41.1955 4.90787C41.0054 4.89955 40.8071 4.94946 40.6005 5.06593C40.3939 5.1824 40.2286 5.40701 40.1046 5.73977C39.9807 6.07253 39.9559 6.34706 40.0385 6.57167C40.1212 6.79629 40.2369 6.96267 40.3856 7.07913C40.4187 7.11241 40.46 7.13737 40.5013 7.16232C40.5426 7.18728 40.5839 7.20392 40.6253 7.22056ZM42.6995 8.92596L45.3852 5.67322L45.4348 5.70649L46.4264 6.3221L45.7488 8.78453L47.6164 7.0625L47.666 7.09577L48.6576 7.71138L47.0049 11.6047L46.9553 11.5714L46.005 10.9808L46.9388 8.87604L45.2034 10.465L45.1538 10.4317L44.5175 10.0407L45.1373 7.74466L43.6994 9.54157L43.6498 9.50829L42.6995 8.92596ZM47.0627 11.6879L51.0624 9.81609L51.1037 9.85769L52.0954 10.8726L50.1616 14.8657L50.1203 14.8241L49.2444 13.9257L49.5997 13.2602L48.6494 12.2868L47.9717 12.6279L47.9304 12.5863L47.0627 11.6879ZM50.8227 11.0972L49.4675 11.8127L50.0955 12.4532L50.8227 11.0972ZM56.8222 17.6193L57.9957 20.4728L55.0786 21.6873L55.2686 22.1532L53.5746 22.8603L53.5498 22.8021L53.1697 21.8704L53.9382 21.5459L53.0457 19.3663L52.2772 19.6908L52.2524 19.6325L51.8722 18.7008L53.5663 17.9937C53.5746 18.0103 53.5828 18.027 53.5911 18.0436C53.5994 18.0602 53.6076 18.0769 53.6242 18.0935C53.7151 18.2349 53.8555 18.3431 54.0539 18.4263C54.2439 18.5012 54.4836 18.4928 54.7646 18.4013C54.8059 18.3847 54.8555 18.3681 54.905 18.3514C54.9546 18.3348 54.9959 18.3098 55.0455 18.2932C55.0621 18.2849 55.0786 18.2849 55.0868 18.2765C55.1034 18.2682 55.1199 18.2682 55.1282 18.2599L56.8057 17.5611L56.8222 17.6193ZM56.3016 18.992L55.3926 19.3747C55.153 19.4745 54.9298 19.541 54.7232 19.5743C54.5166 19.6076 54.3266 19.5577 54.1365 19.4246L54.5993 20.5476L56.5991 19.7157L56.3016 18.992ZM54.4092 22.4943L58.7807 23.1182L58.789 23.1765L59.07 24.574L55.2852 26.8618L55.2769 26.8035L55.029 25.5723L55.6901 25.2063L55.4174 23.8669L54.6654 23.7837L54.6571 23.7255L54.4092 22.4943ZM57.8883 24.0583L56.3595 23.9168L56.5413 24.7987L57.8883 24.0583ZM55.3348 29.3741L56.9462 29.2993C56.9214 29.1578 56.9049 29.0497 56.8966 28.9665C56.8883 28.8833 56.8801 28.8084 56.8718 28.7419C56.8718 28.7169 56.8718 28.692 56.8718 28.667C56.8718 28.6421 56.8718 28.6088 56.8718 28.5755V28.5173C56.8388 27.8517 56.9545 27.4358 57.2024 27.2694C57.4503 27.103 57.7313 27.0115 58.037 26.9866C58.0618 26.9866 58.0949 26.9866 58.1196 26.9866C58.1444 26.9866 58.1692 26.9866 58.194 26.9866L59.4005 26.9367V26.9949L59.4501 28.1679L58.4089 28.2178C58.2436 28.2261 58.1031 28.2594 57.9792 28.3176C57.8635 28.3758 57.8056 28.5589 57.8056 28.8583C57.8056 28.8916 57.8139 28.9415 57.8222 28.9915C57.8304 29.0414 57.8469 29.1329 57.8635 29.2743L59.4832 29.1994V29.2577L59.5328 30.4306L55.3761 30.6137V30.5554L55.3348 29.3741ZM59.384 32.1111L59.2022 33.2258L56.8305 32.8265L58.946 34.7649L58.9378 34.8231L58.7477 35.9545L54.6489 35.264L54.6571 35.2058L54.8389 34.091L57.2106 34.4903L55.0951 32.577L55.1034 32.5187L55.2852 31.3624L59.384 32.0529V32.1111ZM52.3846 40.505L53.0705 41.5948L56.4586 41.836L56.4256 41.8859L55.7066 43.0672L53.8721 42.8509L54.9629 44.2818L54.9298 44.3317L54.2687 45.4215L51.6987 41.6281L51.7318 41.5781L52.3846 40.505ZM48.9634 44.9973L50.1534 46.0954C50.236 45.9789 50.2939 45.8874 50.3434 45.8208C50.393 45.7543 50.4426 45.6961 50.4839 45.6461C50.5005 45.6295 50.517 45.6129 50.5335 45.5879C50.55 45.5713 50.5748 45.5463 50.5914 45.5214L50.6327 45.4798C51.0789 44.9889 51.4508 44.7726 51.7483 44.8309C52.0458 44.8891 52.302 45.0222 52.5416 45.2302C52.5581 45.2468 52.5829 45.2635 52.5995 45.2884C52.616 45.3051 52.6408 45.3217 52.6573 45.3383L53.5498 46.1619L53.5085 46.2035L52.7234 47.0687L51.9549 46.3616C51.8309 46.2451 51.707 46.1702 51.583 46.1286C51.4591 46.087 51.2938 46.1702 51.0789 46.3949C51.0541 46.4198 51.0293 46.4531 50.9963 46.4947C50.9632 46.5363 50.9136 46.6111 50.831 46.7276L52.0292 47.834L51.9879 47.8756L51.2029 48.7408L48.137 45.9124L48.1783 45.8708L48.9634 44.9973ZM47.947 46.1619L49.2361 50.4129L49.1865 50.4462L48.0544 51.2948L44.3935 48.8157L44.4431 48.7824L45.443 48.0337L46.0545 48.4829L47.1454 47.6677L46.9057 46.9439L46.9553 46.9106L47.947 46.1619ZM48.0131 50.0053L47.5007 48.5495L46.7818 49.0819L48.0131 50.0053ZM41.3111 50.4961C41.3607 50.4129 41.4186 50.3298 41.4764 50.2632C41.5343 50.1966 41.6004 50.1301 41.6665 50.0719C41.7491 49.997 41.84 49.9304 41.9227 49.8805C42.0136 49.8223 42.1045 49.7807 42.1954 49.7308L42.245 49.6975C42.7738 49.4479 43.311 49.4063 43.8564 49.5727C44.3935 49.7391 44.815 50.1384 45.1125 50.7707C45.4265 51.4279 45.4678 52.0185 45.2282 52.5426C44.9968 53.0667 44.6332 53.4494 44.1539 53.6823L44.096 53.7073C44.0299 53.7406 43.9638 53.7655 43.8894 53.7905C43.8151 53.8154 43.7407 53.8404 43.6663 53.857C43.5506 53.8903 43.4267 53.9069 43.3027 53.9153C43.1788 53.9236 43.0465 53.9153 42.9226 53.8986L42.402 52.8005L42.4598 52.7755C42.4929 52.7922 42.5342 52.8088 42.5755 52.8171C42.6168 52.8338 42.6664 52.8504 42.716 52.8587C42.8317 52.892 42.9556 52.9087 43.0961 52.9087C43.2366 52.9087 43.3854 52.8754 43.5424 52.8088C43.8316 52.6591 44.0051 52.4428 44.0712 52.1433C44.1374 51.8521 44.096 51.561 43.9638 51.2698C43.8068 50.9454 43.6002 50.7374 43.3358 50.6542C43.0713 50.571 42.8069 50.5793 42.5507 50.6958C42.3606 50.7956 42.2202 50.9204 42.1127 51.0701C42.0053 51.2199 41.9309 51.3696 41.8813 51.5194L41.8318 51.5443L41.3111 50.4961ZM40.146 50.7374L41.0963 53.7738L41.9722 53.4993L42.2697 54.456L42.2119 54.4726L39.3526 55.3794L39.0551 54.4227L39.9311 54.1482L38.9808 51.1117L39.0386 51.0951L40.146 50.7374ZM37.6999 51.4695L38.3114 55.6123L38.2536 55.6207L37.1049 55.7954L36.857 54.1399L35.9232 55.9784L35.8653 55.9867L34.5101 56.1864L35.7744 53.9485L33.849 52.0518L33.9068 52.0435L35.3447 51.8272L36.733 53.3496L36.4851 51.6608L36.543 51.6525L37.6999 51.4695ZM33.13 56.2363L32.0144 56.1448L32.2045 53.7322L30.4691 56.0283L30.4112 56.02L29.2708 55.9285L29.5931 51.7523L29.651 51.7606L30.7666 51.8521L30.5765 54.2647L32.2871 51.9769L32.345 51.9852L33.5019 52.0767L33.1796 56.2529L33.13 56.2363ZM31.4359 3.87631C31.8161 3.87631 32.1301 4.18411 32.1301 4.57511C32.1301 4.95778 31.8243 5.27391 31.4359 5.27391C31.0558 5.27391 30.7418 4.9661 30.7418 4.57511C30.7418 4.19243 31.0475 3.87631 31.4359 3.87631ZM53.0457 14.5829C53.4258 14.5829 53.7399 14.8907 53.7399 15.2817C53.7399 15.6644 53.4341 15.9805 53.0457 15.9805C52.6656 15.9805 52.3515 15.6727 52.3515 15.2817C52.3515 14.8907 52.6573 14.5829 53.0457 14.5829Z" fill="#094076"/>
<path d="M32.8816 0.632324C40.7818 0.632324 47.93 3.86011 53.1113 9.06782C58.2845 14.2755 61.4908 21.4798 61.4908 29.4328C61.4908 37.3858 58.2845 44.5818 53.1113 49.7978C47.9382 55.0055 40.7818 58.2333 32.8816 58.2333C24.9815 58.2333 17.8333 55.0055 12.6519 49.7978C7.4788 44.5818 4.27246 37.3775 4.27246 29.4245C4.27246 21.4715 7.4788 14.2755 12.6602 9.06782C17.8333 3.85179 24.9897 0.632324 32.8816 0.632324ZM52.6403 9.542C47.5829 4.45076 40.6 1.30617 32.8816 1.30617C25.1633 1.30617 18.1804 4.45908 13.123 9.542C8.06553 14.6332 4.94183 21.6628 4.94183 29.4328C4.94183 37.2028 8.0738 44.2324 13.123 49.3236C18.1804 54.4148 25.1633 57.5594 32.8816 57.5594C40.6 57.5594 47.5829 54.4065 52.6403 49.3236C57.6977 44.2324 60.8214 37.2028 60.8214 29.4328C60.8214 21.6628 57.6977 14.6332 52.6403 9.542Z" fill="#094076"/>
<path d="M15.8754 41.7447C14.5945 39.9478 13.6111 37.9762 12.9418 35.8964C12.2724 33.8166 11.9336 31.6287 11.9336 29.4242C11.9336 23.6009 14.2805 18.3266 18.0736 14.5082C21.8666 10.6898 27.1059 8.32715 32.8905 8.32715C38.6752 8.32715 43.9144 10.6898 47.7074 14.5082C51.5005 18.3266 53.8474 23.6009 53.8474 29.4242C53.8474 35.2475 51.5005 40.5218 47.7074 44.3402C43.9144 48.167 38.6752 50.5296 32.8822 50.5296C32.1716 50.5296 31.4526 50.488 30.7419 50.4131C30.023 50.3382 29.3123 50.2301 28.6016 50.0803L28.6677 49.7476C29.3619 49.889 30.0643 50.0055 30.775 50.0803C31.4691 50.1552 32.1716 50.1885 32.8822 50.1885C38.576 50.1885 43.7243 47.8675 47.4595 44.1073C51.1865 40.3554 53.5004 35.1643 53.5004 29.4325C53.5004 23.7007 51.1948 18.518 47.4595 14.7578C43.7326 11.0059 38.576 8.67655 32.8822 8.67655C27.1885 8.67655 22.0402 10.9976 18.305 14.7578C14.578 18.5096 12.2641 23.7007 12.2641 29.4325C12.2641 31.6038 12.603 33.7584 13.2558 35.7966C13.9086 37.8431 14.8838 39.7814 16.1399 41.545L15.8754 41.7447Z" fill="#094076"/>
<path d="M55.6404 39.7316C56.0238 39.7316 56.3346 39.4187 56.3346 39.0328C56.3346 38.6468 56.0238 38.334 55.6404 38.334C55.2571 38.334 54.9463 38.6468 54.9463 39.0328C54.9463 39.4187 55.2571 39.7316 55.6404 39.7316Z" fill="#094076"/>
<path d="M29.8494 47.2025C29.6593 47.1692 29.5188 47.2108 29.4196 47.269C29.304 47.3439 29.2131 47.4687 29.18 47.635C29.1552 47.8014 29.1965 47.9512 29.2792 48.0593C29.3535 48.1508 29.4692 48.2423 29.6593 48.2756C29.8494 48.3089 29.9898 48.2673 30.089 48.2091C30.2047 48.1342 30.2956 48.0094 30.3287 47.843C30.3617 47.6766 30.3121 47.5269 30.2295 47.4188C30.1551 47.3272 30.0394 47.2441 29.8494 47.2025ZM29.7006 48.026C29.5353 47.9928 29.4444 47.843 29.4692 47.6933C29.494 47.5352 29.6428 47.4271 29.7998 47.4603C29.9651 47.4853 30.0642 47.635 30.0312 47.8014C30.0064 47.9512 29.8659 48.0593 29.7006 48.026ZM31.56 47.4936C31.4856 47.4437 31.403 47.4104 31.2955 47.4021C31.1964 47.3938 31.0559 47.3938 30.9154 47.4853C30.7997 47.5685 30.7088 47.7016 30.6923 47.8763C30.6675 48.0676 30.7336 48.2007 30.808 48.2839C30.8906 48.3838 31.0228 48.4586 31.1798 48.4836C31.2955 48.5002 31.3864 48.4753 31.4525 48.4503L31.4856 48.1675C31.4029 48.2257 31.312 48.234 31.2542 48.2257C31.0807 48.2007 30.9732 48.0676 30.998 47.9013C31.0146 47.7515 31.1302 47.6267 31.3203 47.6517C31.4195 47.66 31.4856 47.7099 31.5434 47.7682L31.56 47.4936ZM31.8905 48.4919L32.1797 48.5002L32.1963 48.0843L32.5929 48.1009L32.5764 48.5169L32.8656 48.5252L32.8987 47.5019L32.6095 47.4936L32.5929 47.8597L32.1963 47.843L32.2128 47.477L31.9236 47.4687L31.8905 48.4919ZM33.7912 47.4437C33.6011 47.4603 33.4772 47.5352 33.3945 47.6267C33.3036 47.7266 33.2458 47.8763 33.254 48.0427C33.2706 48.2091 33.3532 48.3422 33.4606 48.4254C33.5515 48.5002 33.692 48.5501 33.8821 48.5335C34.0721 48.5169 34.1961 48.442 34.2787 48.3505C34.3696 48.2507 34.4275 48.1009 34.4192 47.9345C34.4027 47.7682 34.3201 47.635 34.2126 47.5519C34.1217 47.477 33.9895 47.4271 33.7912 47.4437ZM33.8656 48.2756C33.7003 48.2923 33.5681 48.1675 33.5515 48.0094C33.535 47.8513 33.6507 47.7099 33.816 47.6933C33.9812 47.6766 34.1135 47.8014 34.13 47.9595C34.1383 48.1176 34.0308 48.2673 33.8656 48.2756ZM34.7746 47.4021L34.915 48.417L35.4357 48.3422C35.477 48.3338 35.5762 48.3172 35.6505 48.2423C35.6918 48.2007 35.7414 48.1176 35.7249 48.0011C35.7084 47.9096 35.6671 47.8597 35.6175 47.8181C35.5762 47.7931 35.5266 47.7765 35.477 47.7682C35.5596 47.7182 35.6009 47.6267 35.5844 47.5352C35.5762 47.452 35.5266 47.3855 35.4605 47.3522C35.3696 47.3023 35.2787 47.3189 35.2125 47.3272L34.7746 47.4021ZM35.1134 47.7682L35.0886 47.5935L35.2125 47.5768C35.2373 47.5768 35.2704 47.5685 35.2952 47.5851C35.3117 47.5935 35.3365 47.6184 35.3365 47.6517C35.3448 47.685 35.3282 47.7099 35.3117 47.7266C35.2869 47.7515 35.2456 47.7515 35.2373 47.7598L35.1134 47.7682ZM35.1712 48.1591L35.1464 47.9512L35.2869 47.9345C35.3117 47.9345 35.353 47.9262 35.3861 47.9429C35.4026 47.9512 35.4274 47.9761 35.4357 48.0094C35.4439 48.051 35.4274 48.076 35.4109 48.0926C35.3861 48.1176 35.3365 48.1259 35.3117 48.1342L35.1712 48.1591ZM36.7248 47.2108C36.5926 47.086 36.4438 47.1109 36.3695 47.1276C36.0802 47.2025 35.9398 47.4853 36.0059 47.7765C36.0802 48.0676 36.3364 48.259 36.6422 48.1841C36.7166 48.1675 36.8405 48.1176 36.9066 47.9429L36.9397 48.0676L37.2206 48.0011L36.9727 47.0028L36.6918 47.0694L36.7248 47.2108ZM36.6422 47.9179C36.4852 47.9595 36.3364 47.8597 36.2951 47.7016C36.2538 47.5435 36.3364 47.3938 36.5017 47.3522C36.6587 47.3106 36.8075 47.4021 36.8488 47.5602C36.8901 47.7266 36.7992 47.8846 36.6422 47.9179ZM37.7247 47.9013L37.9974 47.8181L37.8817 47.4188L38.2701 47.3106L38.3858 47.7099L38.6585 47.6267L38.3776 46.6368L38.1049 46.72L38.204 47.0694L37.8156 47.1775L37.7165 46.8281L37.4438 46.9113L37.7247 47.9013ZM39.4932 46.3706C39.3444 46.2707 39.1957 46.3206 39.1296 46.3539C38.8569 46.4787 38.766 46.7782 38.8899 47.061C39.0139 47.3356 39.3031 47.477 39.5841 47.3522C39.6502 47.3189 39.7659 47.2524 39.7989 47.0694L39.8568 47.1941L40.1212 47.0777L39.708 46.1376L39.4436 46.2541L39.4932 46.3706ZM39.5345 47.086C39.3857 47.1525 39.2287 47.086 39.1626 46.9363C39.0965 46.7865 39.1544 46.6201 39.3031 46.5536C39.4519 46.487 39.6089 46.5536 39.675 46.7033C39.7411 46.8531 39.6832 47.0194 39.5345 47.086ZM40.6088 45.7633L41.0881 46.67L41.5509 46.4205C41.5922 46.3955 41.6748 46.3456 41.7244 46.2541C41.7492 46.1959 41.774 46.1127 41.7161 46.0045C41.6748 45.9213 41.617 45.8881 41.5591 45.8714C41.5095 45.8631 41.4517 45.8631 41.4104 45.8797C41.4765 45.7965 41.4765 45.705 41.4352 45.6302C41.3938 45.5553 41.3277 45.5137 41.2534 45.4971C41.1542 45.4804 41.0716 45.522 41.0137 45.5553L40.6088 45.7633ZM41.0468 45.9879L40.9641 45.8298L41.0798 45.7716C41.1046 45.7549 41.1377 45.7383 41.1625 45.7466C41.179 45.7466 41.212 45.7633 41.2286 45.7965C41.2451 45.8215 41.2451 45.8465 41.2286 45.8797C41.212 45.913 41.179 45.9296 41.1707 45.9296L41.0468 45.9879ZM41.2368 46.3373L41.1377 46.1543L41.2616 46.0877C41.2864 46.0794 41.3195 46.0544 41.3608 46.0628C41.3856 46.0628 41.4104 46.0794 41.4269 46.1127C41.4434 46.1459 41.4434 46.1792 41.4352 46.2042C41.4186 46.2375 41.3773 46.2624 41.3525 46.279L41.2368 46.3373ZM43.0218 45.5553L43.278 45.3806L42.3938 44.0745L41.9558 44.374L42.1045 44.5903L42.2946 44.4655L43.0218 45.5553ZM44.4019 44.6901V44.582L44.3853 43.8915C44.3771 43.7168 44.3605 43.5421 44.2366 43.384C44.063 43.1594 43.749 43.0762 43.435 43.3258C43.1044 43.5837 43.1375 43.9164 43.311 44.1411C43.5094 44.3989 43.8151 44.3989 44.0135 44.2409C44.0713 44.1993 44.1044 44.1494 44.1291 44.0995V44.7068L44.4019 44.6901ZM43.592 43.5088C43.7242 43.409 43.8978 43.4256 43.9969 43.5587C44.0961 43.6918 44.0796 43.8665 43.9473 43.9664C43.8151 44.0662 43.6416 44.0495 43.5424 43.9164C43.435 43.7833 43.4598 43.6086 43.592 43.5088ZM45.6084 43.6835L45.6001 43.5754L45.534 42.8849C45.5175 42.7185 45.4844 42.5355 45.3522 42.3857C45.1621 42.1694 44.8398 42.1112 44.5506 42.3857C44.2366 42.6686 44.2944 42.993 44.4845 43.201C44.6993 43.4423 45.0051 43.4173 45.1952 43.2509C45.2448 43.201 45.2778 43.1511 45.3026 43.1012L45.3439 43.7085L45.6084 43.6835ZM44.7159 42.5604C44.8398 42.4523 45.0134 42.4606 45.1208 42.5854C45.2365 42.7102 45.22 42.8849 45.096 43.0013C44.9721 43.1095 44.7985 43.1012 44.6911 42.9764C44.5837 42.8516 44.5919 42.6769 44.7159 42.5604ZM46.3025 42.8266L46.5752 42.7601L46.5504 42.6852L45.9968 40.9382L45.1869 41.845L45.3852 42.0197L45.8728 41.4706L46.3025 42.8266ZM47.7487 41.271L47.9222 41.0464L47.3107 40.5639L47.5338 40.2727L47.3438 40.123L46.9471 40.6387L47.7487 41.271ZM47.7735 39.4658C47.6743 39.6321 47.6578 39.7736 47.6743 39.89C47.6991 40.0231 47.7817 40.1646 47.9222 40.2477C48.0627 40.3393 48.2197 40.3476 48.3519 40.3143C48.4676 40.281 48.5916 40.2062 48.6907 40.0398C48.7899 39.8734 48.8064 39.732 48.7899 39.6072C48.7651 39.4741 48.6825 39.3327 48.542 39.2495C48.4015 39.158 48.2445 39.1413 48.1123 39.1829C48.0049 39.2245 47.8809 39.2994 47.7735 39.4658ZM48.4759 39.9067C48.385 40.0481 48.2114 40.0814 48.0792 39.9982C47.947 39.915 47.8974 39.7403 47.9883 39.5989C48.0792 39.4574 48.2528 39.4242 48.385 39.5074C48.5172 39.5905 48.5668 39.7652 48.4759 39.9067ZM48.3767 38.534L48.7073 38.7254C48.8147 38.7836 48.8726 38.8335 48.9139 38.8917C48.9552 38.95 48.98 39.0332 48.9387 39.1164L49.4097 39.3909L49.5419 39.1663L49.2857 39.0165L49.6328 38.4009L49.889 38.5507L50.0212 38.3261L49.5502 38.0515L49.4758 38.1846L48.8064 37.7936L48.3767 38.534ZM49.3271 38.4342L49.1205 38.7919C49.1039 38.6838 49.0296 38.6089 48.9139 38.5423L48.7155 38.4259L48.8643 38.1597L49.3271 38.4342ZM50.4013 38.0931L50.5418 37.7936L49.4675 36.3794L49.3271 36.6789L49.732 37.1863L49.0709 37.2279L48.9304 37.5357L49.922 37.4609L50.4013 38.0931Z" fill="#094076"/>
<path fill-rule="evenodd" clip-rule="evenodd" d="M4.85109 13.2939L4.6445 13.7016L6.37989 14.5917L5.95017 15.4319L4.21478 14.5418L4.00819 14.9494L6.09892 16.0226L6.94183 14.3588L4.85109 13.2939ZM5.24775 18.0607C5.31386 17.886 5.35518 17.7197 5.35518 17.5533C5.35518 17.3869 5.33039 17.2372 5.26428 17.0874C5.20644 16.946 5.11553 16.8129 4.99984 16.7047C4.88415 16.5883 4.74366 16.5051 4.57839 16.4302C4.41311 16.3637 4.24784 16.3304 4.09083 16.3304C3.93382 16.3304 3.7768 16.3637 3.63632 16.4219C3.49584 16.4801 3.36362 16.5716 3.25619 16.6964C3.14049 16.8129 3.04959 16.9626 2.98348 17.1373C2.91737 17.312 2.87605 17.4784 2.87605 17.6448C2.87605 17.8112 2.90084 17.9609 2.95869 18.1107C3.01654 18.2521 3.10744 18.3852 3.22313 18.4933C3.33882 18.6098 3.47931 18.693 3.64458 18.7679C3.80986 18.8344 3.97513 18.8677 4.13215 18.8677C4.28916 18.8677 4.44617 18.8344 4.58665 18.7762C4.72714 18.718 4.85936 18.6264 4.96679 18.5017C5.08248 18.3769 5.17338 18.2354 5.24775 18.0607ZM3.35535 17.2954C3.39667 17.1872 3.45452 17.0957 3.52889 17.0209C3.60326 16.946 3.6859 16.8878 3.7768 16.8545C3.86771 16.8129 3.96687 16.7963 4.0743 16.7963C4.18173 16.7963 4.28916 16.8212 4.39659 16.8628C4.50402 16.9044 4.60318 16.971 4.67755 17.0375C4.75193 17.1124 4.81804 17.1956 4.85936 17.2871C4.90068 17.3786 4.9172 17.4784 4.92547 17.5782C4.92547 17.6781 4.90894 17.7862 4.85936 17.8944C4.81804 18.0025 4.76019 18.094 4.68582 18.1689C4.61144 18.2438 4.52881 18.302 4.43791 18.3353C4.347 18.3686 4.24784 18.3935 4.14041 18.3852C4.03298 18.3852 3.92555 18.3602 3.81812 18.3186C3.71069 18.277 3.61153 18.2105 3.53715 18.1439C3.46278 18.0691 3.40493 17.9859 3.36362 17.8944C3.3223 17.8029 3.30577 17.703 3.30577 17.6032C3.2975 17.5034 3.31403 17.4035 3.35535 17.2954ZM4.32221 20.5232L4.44617 20.0823L2.19016 19.4334L2.0662 19.8743L3.0248 20.1488L3.05786 20.2154L1.81829 20.7312L1.65301 21.3135L3.15702 20.6563L3.92555 21.9125L4.08256 21.3551L3.37188 20.2487L4.32221 20.5232ZM3.76028 22.4865L1.93398 23.0189L1.35552 22.5697L1.25635 23.0605L3.34709 24.5829L3.43799 24.092L2.38849 23.3766L3.66111 23.0189L3.76028 22.4865ZM0.917539 25.1319L0.859692 25.5895L2.79341 25.8307L2.67772 26.7708L0.744 26.5295L0.686153 26.9871L3.00827 27.2782L3.23139 25.4231L0.917539 25.1319ZM3.00001 28.784L3.01654 28.3264L0.67789 28.2432L0.661362 28.7008L1.66128 28.7341L1.71086 28.7923L0.628307 29.5909L0.603516 30.1982L1.90093 29.1916L2.95043 30.2232L2.96695 29.6408L2.00836 28.7424L3.00001 28.784ZM0.818374 32.8187L0.851429 33.3095L3.17355 32.1532L3.14876 31.8038L0.686153 30.9552L0.719208 31.4544L1.2233 31.6291L1.28941 32.5775L0.818374 32.8187ZM1.60343 31.7455L2.47113 32.0284L1.65301 32.4194L1.60343 31.7455ZM2.35544 35.2312C2.28932 35.2479 2.23148 35.2728 2.1819 35.3144C2.13231 35.356 2.09099 35.3976 2.04968 35.4558C2.01662 35.5141 1.99183 35.5723 1.98357 35.6305C1.9753 35.6971 1.9753 35.7636 1.99183 35.8302C2.00836 35.8967 2.03315 35.955 2.07447 36.0049C2.11579 36.0548 2.1571 36.0964 2.21495 36.138C2.2728 36.1713 2.33064 36.1962 2.38849 36.2045C2.4546 36.2129 2.52071 36.2129 2.58682 36.1962C2.65293 36.1796 2.71078 36.1546 2.76036 36.113C2.80994 36.0714 2.85126 36.0298 2.89258 35.9716C2.92564 35.9134 2.95043 35.8551 2.95869 35.7969C2.96695 35.7304 2.96695 35.6638 2.95043 35.5973C2.9339 35.5307 2.90911 35.4725 2.86779 35.4226C2.82647 35.3726 2.78515 35.3311 2.7273 35.2895C2.66946 35.2562 2.61161 35.2312 2.55377 35.2229C2.47939 35.2146 2.42155 35.2146 2.35544 35.2312ZM2.01662 38.9082L2.16537 39.3408L4.00819 38.7003L4.31395 39.5987L2.47113 40.2393L2.61988 40.6719L4.83457 39.9065L4.23131 38.1429L2.01662 38.9082ZM5.2147 40.8715L3.07438 41.8282L3.25619 42.2442L4.04951 41.8864L4.17346 42.161C4.23131 42.2858 4.28916 42.3856 4.36353 42.4605C4.43791 42.5353 4.51228 42.5936 4.60318 42.6185C4.66103 42.6435 4.71887 42.6518 4.77672 42.6601C4.83457 42.6601 4.88415 42.6601 4.93373 42.6518C4.98331 42.6435 5.02463 42.6352 5.06595 42.6185C5.10727 42.6019 5.13206 42.5936 5.15685 42.5852C5.20644 42.5603 5.26428 42.5353 5.31387 42.4937C5.37171 42.4521 5.42129 42.4022 5.46261 42.344C5.50393 42.2858 5.54525 42.2109 5.57004 42.136C5.59483 42.0611 5.6031 41.9946 5.6031 41.928C5.6031 41.8615 5.58657 41.7949 5.57004 41.7201C5.54525 41.6535 5.52046 41.5786 5.4874 41.4954L5.2147 40.8715ZM5.04116 41.4539L5.10727 41.5953C5.1238 41.6286 5.14033 41.6618 5.14859 41.7034C5.15685 41.7367 5.17338 41.7783 5.17338 41.8116C5.18164 41.8532 5.18164 41.8864 5.17338 41.928C5.16512 41.953 5.15685 41.9863 5.14033 42.0112C5.1238 42.0362 5.10727 42.0695 5.08248 42.0944C5.05769 42.1194 5.02463 42.1443 4.98331 42.161C4.93373 42.1859 4.88415 42.1942 4.83457 42.1942C4.78498 42.1942 4.7354 42.1859 4.68582 42.161C4.65276 42.1443 4.61971 42.1194 4.59492 42.0861C4.57013 42.0611 4.5536 42.0279 4.53707 42.0029C4.52054 41.9696 4.50402 41.9447 4.49575 41.9197L4.42138 41.745L5.04116 41.4539ZM6.79308 44.0161C6.70218 43.8581 6.58648 43.7249 6.46253 43.6168C6.33031 43.517 6.19809 43.4421 6.04108 43.4005C5.89233 43.3589 5.73532 43.3506 5.57831 43.3672C5.42129 43.3922 5.26428 43.4421 5.10727 43.5336C4.95026 43.6251 4.8263 43.7333 4.72714 43.8581C4.62797 43.9828 4.56186 44.1243 4.52054 44.274C4.47922 44.4237 4.47096 44.5818 4.49575 44.7482C4.52054 44.9146 4.57839 45.0726 4.66929 45.239C4.76019 45.3971 4.87589 45.5302 4.99984 45.6383C5.13206 45.7382 5.26428 45.813 5.41303 45.8546C5.56178 45.8962 5.71879 45.9045 5.8758 45.8879C6.03281 45.8629 6.18982 45.813 6.34684 45.7215C6.50385 45.63 6.6278 45.5219 6.72697 45.3971C6.82613 45.2723 6.89224 45.1309 6.93356 44.9811C6.97488 44.8314 6.98315 44.6733 6.95835 44.5069C6.94183 44.3406 6.88398 44.1742 6.79308 44.0161ZM5.0329 45.0394C4.97505 44.9395 4.942 44.8397 4.92547 44.7316C4.90894 44.6317 4.9172 44.5319 4.942 44.4321C4.96679 44.3322 5.01637 44.2491 5.08248 44.1659C5.14859 44.0827 5.23123 44.0078 5.33866 43.9496C5.44609 43.8913 5.54525 43.8497 5.65268 43.8331C5.76011 43.8165 5.85927 43.8165 5.95844 43.8414C6.0576 43.8664 6.14851 43.908 6.23114 43.9745C6.31378 44.0411 6.37989 44.1159 6.43774 44.2158C6.49558 44.3156 6.52864 44.4154 6.54517 44.5236C6.56169 44.6234 6.55343 44.7232 6.52038 44.8231C6.49558 44.9229 6.446 45.0061 6.37989 45.0893C6.31378 45.1725 6.23114 45.2473 6.12371 45.3056C6.01628 45.3638 5.91712 45.4054 5.80969 45.422C5.70226 45.4387 5.6031 45.4387 5.50393 45.4137C5.40477 45.3888 5.31386 45.3472 5.23949 45.2806C5.15685 45.2224 5.09074 45.1392 5.0329 45.0394ZM7.99133 46.1208L7.15669 46.7115C7.06578 46.7697 6.99141 46.8196 6.9253 46.8612C6.85919 46.9028 6.79308 46.9278 6.7435 46.9527C6.69391 46.9777 6.64433 46.986 6.60301 46.9943C6.5369 47.011 6.47906 47.0193 6.42121 47.011C6.36336 47.011 6.30552 46.9943 6.25593 46.9694C6.20635 46.9444 6.16503 46.9111 6.13198 46.8612L5.37997 47.3936L5.61962 47.7514L6.04934 47.4436L6.87572 48.6332L6.446 48.941L6.68565 49.2904L7.43765 48.758L7.29717 48.5583L8.89208 47.4352L7.99133 46.1208ZM7.92522 46.7115L8.31361 47.2772L7.04099 48.1756L6.49558 47.3936C6.5369 47.402 6.58649 47.4103 6.64433 47.4103C6.70218 47.4103 6.76002 47.402 6.82613 47.3853C6.86745 47.377 6.90877 47.3604 6.96662 47.3354C7.0162 47.3105 7.08231 47.2772 7.15669 47.2356C7.23106 47.194 7.3137 47.1358 7.41286 47.0692L7.92522 46.7115ZM8.8177 50.9958L9.13999 51.3701L10.2969 49.0408L10.0738 48.7829L7.60293 49.5899L7.92522 49.9642L8.42931 49.7978L9.04909 50.5133L8.8177 50.9958ZM8.80944 49.6564L9.66887 49.3569L9.24742 50.1639L8.80944 49.6564ZM12.5364 51.47L12.2224 51.1622L11.5365 51.8776L11.6604 50.6131L11.2886 50.2471L11.1811 51.6613L9.63582 51.9275L10.0159 52.2935L11.2886 52.0606V52.1355L10.5944 52.8592L10.9084 53.167L11.6026 52.4433H11.677L11.4869 53.7327L11.867 54.0988L12.0736 52.5348L13.4702 52.3767L13.0983 52.0107L11.8505 52.1854L12.5364 51.47ZM13.9247 55.6877L14.3131 55.9955L15.0073 53.4832L14.7346 53.2669L12.462 54.5314L12.8504 54.8392L13.3132 54.5813L14.0569 55.1636L13.9247 55.6877ZM13.6685 54.3733L14.4536 53.9158L14.1974 54.7893L13.6685 54.3733ZM16.8088 56.1702C16.7757 56.2284 16.7509 56.295 16.7427 56.3532C16.7344 56.4198 16.7427 56.478 16.7592 56.5446C16.7757 56.6028 16.8005 56.661 16.8418 56.7193C16.8831 56.7692 16.9327 56.8108 16.9906 56.8524C17.0484 56.8857 17.1145 56.9106 17.1724 56.9106C17.2385 56.9189 17.2963 56.9106 17.3624 56.894C17.4203 56.8773 17.4781 56.8524 17.536 56.8108C17.5856 56.7692 17.6269 56.7193 17.6682 56.661C17.7013 56.6028 17.726 56.5363 17.7343 56.478C17.7426 56.4115 17.7343 56.3532 17.7178 56.2867C17.7013 56.2284 17.6765 56.1702 17.6351 56.112C17.5938 56.0537 17.5442 56.0205 17.4864 55.9789C17.4286 55.9456 17.3624 55.9206 17.3046 55.9206C17.2385 55.9123 17.1806 55.9206 17.1145 55.9373C17.0567 55.9539 16.9988 55.9789 16.941 56.0205C16.8831 56.0621 16.8418 56.112 16.8088 56.1702ZM20.701 59.4978L21.1472 59.7058L21.2629 57.1019L20.9489 56.9522L19.0152 58.6992L19.4614 58.9072L19.8581 58.5495L20.7175 58.9488L20.701 59.4978ZM20.1556 58.2832L20.8167 57.6593L20.7589 58.5661L20.1556 58.2832ZM22.8579 57.7675L22.0976 59.997L22.5273 60.1467L22.8083 59.3231L23.0892 59.423C23.2215 59.4645 23.3371 59.4895 23.4363 59.4812C23.5437 59.4812 23.6346 59.4562 23.7173 59.4146C23.7751 59.3897 23.8247 59.3481 23.866 59.3148C23.9073 59.2732 23.9404 59.2316 23.9735 59.19C23.9983 59.1484 24.023 59.1068 24.0396 59.0736C24.0561 59.0403 24.0644 59.007 24.0726 58.982C24.0892 58.9321 24.1057 58.8656 24.1139 58.799C24.1222 58.7325 24.1222 58.6659 24.1057 58.5911C24.0974 58.5162 24.0644 58.4413 24.023 58.3664C23.9817 58.2999 23.9404 58.2417 23.8908 58.2001C23.8412 58.1585 23.7834 58.1169 23.7173 58.0836C23.6512 58.0503 23.5768 58.017 23.4942 57.9921L22.8579 57.7675ZM23.1636 58.2916L23.3124 58.3415C23.3454 58.3498 23.3785 58.3664 23.4198 58.3831C23.4528 58.3997 23.4859 58.4164 23.519 58.4413C23.552 58.4663 23.5768 58.4912 23.6016 58.5245C23.6181 58.5495 23.6346 58.5744 23.6429 58.6077C23.6512 58.641 23.6594 58.6742 23.6594 58.7075C23.6594 58.7408 23.6512 58.7824 23.6429 58.824C23.6264 58.8739 23.6016 58.9155 23.5603 58.9571C23.5272 58.9987 23.4776 59.0236 23.4281 59.0403C23.3867 59.0486 23.3537 59.0569 23.3124 59.0569C23.2793 59.0569 23.238 59.0486 23.2132 59.0403C23.1801 59.032 23.1471 59.0236 23.1223 59.0153L22.9488 58.9571L23.1636 58.2916ZM26.4195 58.8157L25.1552 58.4995L24.585 60.7873L25.8493 61.1034L25.9402 60.7207L25.1221 60.5127L25.2791 59.8888L26.0642 60.0885L26.1551 59.7058L25.37 59.5061L25.494 58.9987L26.3121 59.2067L26.4195 58.8157ZM27.8822 59.0736L27.436 58.982L26.9897 61.2947L27.436 61.3862L27.6343 60.3547L28.6094 60.546L28.4111 61.5776L28.8573 61.6691L29.3036 59.3564L28.8573 59.2649L28.6838 60.1633L27.7087 59.972L27.8822 59.0736ZM30.5432 59.4063L30.4523 60.4296C30.444 60.5377 30.4275 60.6292 30.4192 60.7041C30.4027 60.779 30.3861 60.8455 30.3696 60.9037C30.3531 60.962 30.3366 61.0036 30.3118 61.0368C30.287 61.0951 30.2457 61.145 30.2043 61.1949C30.163 61.2365 30.1217 61.2781 30.0721 61.3031C30.0225 61.328 29.973 61.3363 29.9151 61.328L29.8325 62.2514L30.2539 62.2847L30.3035 61.7523L31.7414 61.8771L31.6918 62.4095L32.1133 62.4428L32.1959 61.5194L31.948 61.4944L32.1215 59.5394L30.5432 59.4063ZM30.9481 59.8389L31.6257 59.8971L31.4935 61.4611L30.5514 61.3779C30.5845 61.353 30.6258 61.3114 30.6588 61.2698C30.6919 61.2282 30.725 61.1783 30.758 61.1117C30.7745 61.0784 30.7911 61.0285 30.8076 60.9786C30.8241 60.9204 30.8407 60.8538 30.8572 60.7706C30.8737 60.6874 30.882 60.5876 30.8985 60.4628L30.9481 59.8389ZM34.7825 61.8188L35.27 61.8022L34.204 59.4313L33.8569 59.4396L32.9231 61.8854L33.4189 61.8688L33.609 61.3696L34.5511 61.3363L34.7825 61.8188ZM33.7412 60.9869L34.047 60.1301L34.4106 60.9703L33.7412 60.9869ZM37.2616 60.3963C37.2781 60.4628 37.3029 60.5211 37.336 60.5793C37.369 60.6292 37.4186 60.6791 37.4682 60.7124C37.5178 60.7457 37.5756 60.7706 37.6417 60.7873C37.7078 60.8039 37.774 60.8039 37.8401 60.7873C37.9062 60.7706 37.964 60.7457 38.0219 60.7124C38.0715 60.6791 38.121 60.6292 38.1541 60.5793C38.1871 60.5294 38.2119 60.4712 38.2285 60.4046C38.245 60.338 38.245 60.2798 38.2285 60.2049C38.2119 60.1384 38.1871 60.0802 38.1541 60.0219C38.121 59.972 38.0715 59.9221 38.0219 59.8888C37.9723 59.8555 37.9144 59.8306 37.8483 59.8139C37.7822 59.7973 37.7161 59.7973 37.65 59.8139C37.5839 59.8306 37.526 59.8555 37.4682 59.8888C37.4186 59.9221 37.369 59.972 37.336 60.0219C37.3029 60.0718 37.2781 60.1301 37.2616 60.1966C37.2451 60.2715 37.2451 60.3297 37.2616 60.3963ZM41.3191 58.2583C41.1373 58.3082 40.9886 58.3831 40.8563 58.4912C40.7241 58.5911 40.625 58.7075 40.5506 58.8489C40.4762 58.982 40.4266 59.1318 40.4101 59.2982C40.3936 59.4562 40.4101 59.6226 40.4597 59.7973C40.5093 59.972 40.5836 60.1218 40.6828 60.2465C40.782 60.3713 40.8977 60.4712 41.0381 60.546C41.1786 60.6209 41.3274 60.6625 41.4844 60.6791C41.6497 60.6958 41.8149 60.6791 41.9967 60.6292C42.1703 60.5793 42.3273 60.5044 42.4595 60.4046C42.5917 60.3048 42.6909 60.1883 42.7735 60.0469C42.8479 59.9138 42.8975 59.764 42.914 59.5977C42.9305 59.4396 42.914 59.2732 42.8644 59.0985C42.8149 58.9238 42.7405 58.7741 42.6413 58.6493C42.5422 58.5245 42.4265 58.4164 42.286 58.3415C42.1455 58.2666 41.9967 58.225 41.8315 58.2084C41.6662 58.1917 41.5009 58.2084 41.3191 58.2583ZM41.881 60.2299C41.7736 60.2632 41.6662 60.2715 41.5588 60.2632C41.4596 60.2549 41.3604 60.2216 41.2778 60.1717C41.1952 60.1218 41.1125 60.0552 41.0547 59.972C40.9886 59.8888 40.9472 59.789 40.9059 59.6725C40.8729 59.5561 40.8646 59.4479 40.8729 59.3398C40.8811 59.2316 40.9142 59.1318 40.9555 59.0486C41.0051 58.9571 41.0629 58.8822 41.1456 58.8157C41.2282 58.7491 41.3191 58.6992 41.4348 58.6742C41.5422 58.641 41.6497 58.6326 41.7571 58.641C41.8563 58.6493 41.9554 58.6826 42.0381 58.7325C42.1207 58.7824 42.2033 58.8489 42.2612 58.9405C42.3273 59.0236 42.3769 59.1235 42.4099 59.2399C42.443 59.3564 42.4512 59.4645 42.443 59.5727C42.4347 59.6808 42.4017 59.7724 42.3603 59.8639C42.3108 59.9554 42.2529 60.0302 42.1703 60.0968C42.0876 60.1467 41.9885 60.1966 41.881 60.2299ZM43.352 57.6177L44.228 59.8056L44.9469 59.5145C44.9965 59.4978 45.0461 59.4729 45.0957 59.4396C45.1452 59.4146 45.2031 59.373 45.2444 59.3314C45.294 59.2899 45.3353 59.2399 45.3766 59.1817C45.4179 59.1235 45.4427 59.0569 45.4593 58.982C45.4758 58.9155 45.4841 58.8406 45.4758 58.7658C45.4675 58.6909 45.451 58.616 45.4262 58.5411C45.3849 58.4413 45.327 58.3498 45.2609 58.2832C45.1948 58.2167 45.1122 58.1668 45.0295 58.1335C44.9552 58.1085 44.8808 58.0919 44.8064 58.0919C44.7321 58.0919 44.6659 58.1002 44.5998 58.1169C44.5337 58.1335 44.4759 58.1501 44.418 58.1751L44.1288 58.3165L43.9305 57.8174L44.7651 57.4763L44.6164 57.1103L43.352 57.6177ZM44.2693 58.6826L44.4759 58.5994C44.5585 58.5661 44.6246 58.5495 44.6825 58.5495C44.7403 58.5495 44.7899 58.5495 44.8312 58.5661C44.8725 58.5827 44.9056 58.6077 44.9304 58.641C44.9552 58.6742 44.9717 58.7075 44.9882 58.7408C45.0048 58.7741 45.013 58.8073 45.013 58.8406C45.013 58.8739 45.0048 58.9155 44.9882 58.9571C44.9717 58.9987 44.9386 59.0403 44.8891 59.0736C44.8395 59.1151 44.7816 59.1484 44.6907 59.1817L44.4924 59.2649L44.2693 58.6826ZM47.0376 58.5661L46.5914 57.1602L47.8062 58.2001L47.9219 58.1418L47.8227 56.5279L48.6656 57.7259L49.0788 57.5179L47.6492 55.5546L47.3682 55.696L47.4756 57.3765L46.2113 56.295L45.9303 56.4364L46.6245 58.7741L47.0376 58.5661ZM49.8473 54.2069L48.7565 54.9224L50.0291 56.9023L51.1199 56.1869L50.9051 55.8541L50.1944 56.32L49.8473 55.7792L50.525 55.3383L50.3101 55.0056L49.6325 55.4465L49.3515 55.0056L50.0622 54.5397L49.8473 54.2069ZM50.9712 53.4083L50.6159 53.6995L52.0868 55.5297L52.4421 55.2385L51.7893 54.4232L52.5578 53.7993L53.2107 54.6146L53.566 54.3234L52.0951 52.4932L51.7397 52.7844L52.3099 53.4915L51.5414 54.1154L50.9712 53.4083Z" fill="#094076"/>
</svg>
