<svg width="26" height="26" viewBox="0 0 26 26" fill="none" xmlns="http://www.w3.org/2000/svg">
<g clip-path="url(#clip0)">
<path d="M13.001 0.00252808C5.9759 -0.13599 0.162722 5.43498 0.00231934 12.4596C0.0206496 16.0354 1.60401 19.424 4.33521 21.732V25.4584C4.33521 25.7575 4.57772 26 4.87684 26C4.97834 26 5.07782 25.9715 5.16388 25.9177L8.18284 24.0318C9.72095 24.6201 11.3543 24.9201 13.001 24.9168C20.0262 25.0553 25.8394 19.4843 25.9998 12.4597C25.8394 5.43498 20.0262 -0.13599 13.001 0.00252808Z" fill="#2196F3"/>
<path d="M21.5575 8.88499C21.3964 8.66899 21.1009 8.60435 20.8643 8.73332L15.2315 11.8043L11.7273 8.79938C11.5124 8.61517 11.1919 8.62741 10.9918 8.82757L4.49245 15.3269C4.28157 15.5391 4.28259 15.882 4.49478 16.0929C4.66443 16.2615 4.92455 16.2989 5.13482 16.1848L10.7676 13.1139L14.2751 16.1199C14.4899 16.3041 14.8104 16.2918 15.0106 16.0917L21.5099 9.59231C21.6993 9.40113 21.7196 9.09988 21.5575 8.88499Z" fill="#FAFAFA"/>
</g>
<defs>
<clipPath id="clip0">
<rect width="26" height="26" fill="white"/>
</clipPath>
</defs>
</svg>
