<svg width="28" height="28" viewBox="0 0 28 28" fill="none" xmlns="http://www.w3.org/2000/svg">
<g clip-path="url(#clip0)">
<path d="M16.8004 0H11.1997C5.7952 0 1.39844 4.39677 1.39844 9.80126V14.0018C1.39844 17.7961 3.5867 21.2394 6.99915 22.859V27.5369C6.99915 27.943 7.50725 28.1554 7.79589 27.8669L11.8597 23.8031H16.8004C22.2048 23.8031 26.6016 19.4063 26.6016 14.0018V9.80126C26.6016 4.39677 22.2048 0 16.8004 0Z" fill="#665CAC"/>
<path d="M8.39931 22.859C4.98687 21.2393 2.7986 17.796 2.7986 14.0018V9.8012C2.7986 4.39677 7.19542 0 12.5999 0H11.1997C5.7952 0 1.39844 4.39677 1.39844 9.80126V14.0018C1.39844 17.7961 3.5867 21.2394 6.99915 22.859V27.5369C6.99915 27.943 7.50725 28.1554 7.79589 27.8669L8.39931 27.2635V22.859Z" fill="#523494"/>
<path d="M21.0465 17.3962L20.6268 15.1231C20.5921 14.9353 20.4466 14.7876 20.2594 14.7501L16.9592 14.0901C16.8059 14.0596 16.6479 14.1074 16.5375 14.2177L15.1968 15.5586C12.9377 14.5464 11.684 13.2899 10.5808 10.9339L11.9173 9.59748C12.0276 9.48712 12.0755 9.32885 12.0449 9.17584L11.3849 5.87555C11.3474 5.68836 11.1997 5.54278 11.0119 5.50811L8.73876 5.08855C8.67653 5.07712 8.61243 5.07832 8.55064 5.09237C7.95044 5.22871 7.4028 5.53113 6.96689 5.96716C6.21209 6.72195 5.92361 7.82336 6.13274 9.15232C6.48378 11.3839 7.57709 14.4895 9.59424 16.5147L9.6218 16.5421C11.6455 18.5578 14.7511 19.6512 16.9828 20.0023C17.2639 20.0466 17.5347 20.0685 17.7944 20.0685C18.762 20.0685 19.5728 19.7633 20.1681 19.1681C20.604 18.7321 20.9065 18.1845 21.0428 17.5844C21.0566 17.5226 21.0579 17.4586 21.0465 17.3962Z" fill="white"/>
<path d="M11.4609 10.0538L11.9172 9.59742L11.9177 9.59692L11.4608 10.0537L11.4609 10.0538Z" fill="#E5E5E5"/>
<path d="M16.5376 14.2172L16.0768 14.678L16.0769 14.6781L16.5376 14.2173L16.5376 14.2172Z" fill="#E5E5E5"/>
<path d="M18.6742 19.1883C18.4146 19.1883 18.1438 19.1664 17.8627 19.1221C15.6311 18.771 12.5254 17.6776 10.5017 15.6619L10.4741 15.6345C8.45699 13.6093 7.36367 10.5037 7.01263 8.27212C6.8437 7.19844 6.99989 6.27341 7.46413 5.55957C7.28635 5.67819 7.11949 5.81425 6.96664 5.9671C6.21184 6.7219 5.92337 7.8233 6.13249 9.15227C6.48353 11.3838 7.57685 14.4894 9.59399 16.5147L9.62156 16.542C11.6452 18.5577 14.7509 19.6512 16.9825 20.0023C17.2637 20.0466 17.5345 20.0685 17.7941 20.0685C18.7618 20.0685 19.5725 19.7633 20.1678 19.1681C20.3206 19.0152 20.4567 18.8484 20.5753 18.6706C20.0483 19.0134 19.4062 19.1883 18.6742 19.1883Z" fill="#E5E5E5"/>
<path d="M14.9334 7.93433C14.6756 7.93433 14.4667 8.14329 14.4667 8.40103C14.4667 8.65877 14.6756 8.86773 14.9334 8.86773C15.9628 8.86773 16.8003 9.70522 16.8003 10.7347C16.8003 10.989 17.0127 11.2014 17.267 11.2014C17.5213 11.2014 17.7337 10.989 17.7337 10.7347C17.7338 9.1905 16.4775 7.93433 14.9334 7.93433Z" fill="white"/>
<path d="M14.9334 6.06738C14.7608 6.06738 14.5865 6.07695 14.4155 6.09582C14.1592 6.12409 13.9745 6.35471 14.0027 6.61098C14.031 6.86724 14.2621 7.05154 14.5179 7.0237C14.655 7.00856 14.7948 7.00084 14.9334 7.00084C16.9922 7.00084 18.6672 8.67581 18.6672 10.7346C18.6672 10.8733 18.6595 11.013 18.6443 11.1502C18.6164 11.4029 18.8042 11.6375 19.0571 11.6654C19.3098 11.6932 19.5443 11.5055 19.5722 11.2526C19.5911 11.0816 19.6007 10.9073 19.6007 10.7346C19.6007 8.16115 17.5069 6.06738 14.9334 6.06738Z" fill="white"/>
<path d="M14.9339 4.20044C14.7671 4.20044 14.5981 4.20678 14.4319 4.21942C14.1749 4.23888 13.9823 4.4631 14.0017 4.72008C14.0211 4.97711 14.2461 5.16972 14.5024 5.15025C14.6453 5.13937 14.7905 5.1339 14.9339 5.1339C18.0221 5.1339 20.5346 7.64635 20.5346 10.7346C20.5346 11.1716 20.4842 11.6066 20.3847 12.0274C20.3277 12.2686 20.4762 12.5193 20.7154 12.5848C20.967 12.6537 21.2332 12.4959 21.2931 12.2421C21.4092 11.751 21.468 11.2438 21.468 10.7346C21.468 7.13164 18.5368 4.20044 14.9339 4.20044Z" fill="white"/>
</g>
<defs>
<clipPath id="clip0">
<rect width="28" height="28" fill="white"/>
</clipPath>
</defs>
</svg>
