<svg width="26" height="26" viewBox="0 0 26 26" fill="none" xmlns="http://www.w3.org/2000/svg">
<path d="M13.0033 0H12.9967C5.82888 0 0 5.8305 0 13C0 15.8438 0.9165 18.4795 2.47487 20.6196L0.85475 25.4491L5.85162 23.8518C7.90725 25.2135 10.3594 26 13.0033 26C20.1711 26 26 20.1679 26 13C26 5.83213 20.1711 0 13.0033 0Z" fill="#4CAF50"/>
<path d="M20.5676 18.3578C20.254 19.2434 19.0093 19.9779 18.0164 20.1924C17.3371 20.337 16.4499 20.4524 13.4631 19.2142C9.64277 17.6314 7.18252 13.7493 6.99077 13.4974C6.80715 13.2455 5.44702 11.4418 5.44702 9.5763C5.44702 7.7108 6.3944 6.80242 6.77627 6.41242C7.0899 6.0923 7.60827 5.94604 8.10552 5.94604C8.2664 5.94604 8.41102 5.95417 8.54102 5.96067C8.9229 5.97692 9.11465 5.99967 9.36652 6.60255C9.68015 7.35817 10.4439 9.22367 10.5349 9.41542C10.6275 9.60717 10.7201 9.86717 10.5901 10.119C10.4683 10.379 10.361 10.4944 10.1693 10.7154C9.97752 10.9364 9.79552 11.1054 9.60377 11.3427C9.42827 11.549 9.23002 11.77 9.45102 12.1519C9.67202 12.5257 10.4358 13.772 11.5603 14.773C13.0114 16.0649 14.1879 16.4777 14.6088 16.6532C14.9224 16.7832 15.2961 16.7523 15.5253 16.5085C15.8161 16.1949 16.1753 15.6749 16.5409 15.163C16.8009 14.7958 17.1291 14.7503 17.4736 14.8803C17.8246 15.0022 19.682 15.9203 20.0639 16.1104C20.4458 16.3022 20.6976 16.3932 20.7903 16.554C20.8813 16.7149 20.8813 17.4705 20.5676 18.3578Z" fill="#FAFAFA"/>
</svg>
